<svg class="animated" id="freepik_stories-free-shipping" xmlns="http://www.w3.org/2000/svg" viewBox="0 0 500 500" version="1.1" xmlns:xlink="http://www.w3.org/1999/xlink" xmlns:svgjs="http://svgjs.com/svgjs"><style>svg#freepik_stories-free-shipping:not(.animated) .animable {opacity: 0;}svg#freepik_stories-free-shipping.animated #freepik--Floor--inject-36 {animation: 1s 1 forwards cubic-bezier(.36,-0.01,.5,1.38) zoomOut;animation-delay: 0s;}svg#freepik_stories-free-shipping.animated #freepik--Shadow--inject-36 {animation: 1s 1 forwards cubic-bezier(.36,-0.01,.5,1.38) zoomIn;animation-delay: 0s;}svg#freepik_stories-free-shipping.animated #freepik--shadow--inject-36 {animation: 1s 1 forwards cubic-bezier(.36,-0.01,.5,1.38) zoomIn;animation-delay: 0.3333333333333333s;opacity: 0}svg#freepik_stories-free-shipping.animated #freepik--shadow--inject-36 {animation: 1s 1 forwards cubic-bezier(.36,-0.01,.5,1.38) zoomIn;animation-delay: 0.6666666666666666s;opacity: 0}svg#freepik_stories-free-shipping.animated #freepik--Shadows--inject-36 {animation: 1s 1 forwards cubic-bezier(.36,-0.01,.5,1.38) zoomIn;animation-delay: 0s;}svg#freepik_stories-free-shipping.animated #freepik--tree--inject-36 {animation: 1s 1 forwards cubic-bezier(.36,-0.01,.5,1.38) zoomOut;animation-delay: 0s;}svg#freepik_stories-free-shipping.animated #freepik--Tree--inject-36 {animation: 1s 1 forwards cubic-bezier(.36,-0.01,.5,1.38) zoomOut;animation-delay: 0s;}svg#freepik_stories-free-shipping.animated #freepik--Clouds--inject-36 {animation: 1s 1 forwards cubic-bezier(.36,-0.01,.5,1.38) zoomIn;animation-delay: 0s;}svg#freepik_stories-free-shipping.animated #freepik--truck--inject-36 {animation: 1s 1 forwards cubic-bezier(.36,-0.01,.5,1.38) zoomIn;animation-delay: 1s;opacity: 0}svg#freepik_stories-free-shipping.animated #freepik--Truck--inject-36 {animation: 1s 1 forwards cubic-bezier(.36,-0.01,.5,1.38) zoomIn,1.5s Infinite  linear floating;animation-delay: 1s,2s;opacity: 0}svg#freepik_stories-free-shipping.animated #freepik--label--inject-36 {animation: 1s 1 forwards cubic-bezier(.36,-0.01,.5,1.38) lightSpeedLeft;animation-delay: 0s;}svg#freepik_stories-free-shipping.animated #freepik--Label--inject-36 {animation: 1s 1 forwards cubic-bezier(.36,-0.01,.5,1.38) lightSpeedLeft;animation-delay: 0s;}svg#freepik_stories-free-shipping.animated #freepik--character--inject-36 {animation: 1s 1 forwards cubic-bezier(.36,-0.01,.5,1.38) zoomOut;animation-delay: 1.5s;opacity: 0}svg#freepik_stories-free-shipping.animated #freepik--Character--inject-36 {animation: 1s 1 forwards cubic-bezier(.36,-0.01,.5,1.38) zoomOut;animation-delay: 1.5s;opacity: 0}            @keyframes zoomOut {                0% {                    opacity: 0;                    transform: scale(1.5);                }                100% {                    opacity: 1;                    transform: scale(1);                }            }                    @keyframes zoomIn {                0% {                    opacity: 0;                    transform: scale(0.5);                }                100% {                    opacity: 1;                    transform: scale(1);                }            }                    @keyframes floating {                0% {                    opacity: 1;                    transform: translateY(0px);                }                50% {                    transform: translateY(-10px);                }                100% {                    opacity: 1;                    transform: translateY(0px);                }            }                    @keyframes lightSpeedLeft {              from {                transform: translate3d(-50%, 0, 0) skewX(20deg);                opacity: 0;              }              60% {                transform: skewX(-10deg);                opacity: 1;              }              80% {                transform: skewX(2deg);              }              to {                opacity: 1;                transform: translate3d(0, 0, 0);              }            }        .animator-hidden { display: none; }</style><g id="freepik--Floor--inject-36" class="animable" style="transform-origin: 250px 344.18px;"><ellipse id="freepik--floor--inject-36" cx="250" cy="344.18" rx="242.5" ry="142" style="fill: rgb(250, 250, 250); transform-origin: 250px 344.18px;" class="animable"></ellipse></g><g id="freepik--Shadows--inject-36" class="animable" style="transform-origin: 241.692px 345.576px;"><path id="freepik--Shadow--inject-36" d="M150,229.13,31.6,297.5c-2.5,1.45-2.5,3.79,0,5.23L306.31,461.52a14.4,14.4,0,0,0,9.58,1.28c52.14-14.28,92.88-38.61,119-68.28a4.18,4.18,0,0,0-1.14-6.6L159.09,229.13A10,10,0,0,0,150,229.13Z" style="fill: rgb(235, 235, 235); transform-origin: 232.88px 345.576px;" class="animable"></path><ellipse id="freepik--shadow--inject-36" cx="113.75" cy="376.45" rx="35.13" ry="20.28" style="fill: rgb(235, 235, 235); transform-origin: 113.75px 376.45px;" class="animable"></ellipse><path id="freepik--shadow--inject-36" d="M396.91,275c-13,7.5-13,19.66,0,27.16s34,7.5,47,0,13-19.66,0-27.16S409.89,267.5,396.91,275Z" style="fill: rgb(235, 235, 235); transform-origin: 420.41px 288.58px;" class="animable"></path></g><g id="freepik--Tree--inject-36" class="animable animator-active" style="transform-origin: 426.399px 200.835px;"><g id="freepik--tree--inject-36" class="animable" style="transform-origin: 426.399px 200.835px;"><path d="M438,211.42l-2.62-1.33L422.87,238V204.49H418v27l-12.75-23.95-2.49,1.55,15.24,28v50.82a1.2,1.2,0,0,0,.72,1,3.79,3.79,0,0,0,3.47,0,1.21,1.21,0,0,0,.71-1V244.5Z" style="fill: rgb(224, 224, 224); transform-origin: 420.38px 246.91px;" id="el4g7owglcynz" class="animable"></path><g id="elyomaguck5ln"><circle cx="446.63" cy="178.73" r="37.63" style="fill: rgb(240, 240, 240); transform-origin: 446.63px 178.73px; transform: rotate(-76.72deg);" class="animable"></circle></g><path d="M458.43,169.11c4.85-15.29,10-21.27,6.74-23.13a37.63,37.63,0,1,0,10.5,56.7C464.52,205.94,452.14,188.93,458.43,169.11Z" style="fill: rgb(224, 224, 224); transform-origin: 442.342px 178.733px;" id="eluvubg897lcr" class="animable"></path><path d="M413.8,189.38a26.45,26.45,0,1,1-26.45-26.45A26.45,26.45,0,0,1,413.8,189.38Z" style="fill: rgb(240, 240, 240); transform-origin: 387.35px 189.38px;" id="elrizexob373" class="animable"></path><path d="M387.35,162.93a26.37,26.37,0,0,0-15.46,5c-.72,16.16,13,31.92,9.17,37.21s-13.28,2.05-16.57-2.45a26.45,26.45,0,1,0,22.86-39.75Z" style="fill: rgb(224, 224, 224); transform-origin: 389.146px 189.385px;" id="elr4v12qt1y3p" class="animable"></path><path d="M469,160.86a48.53,48.53,0,1,1-48.53-48.52A48.53,48.53,0,0,1,469,160.86Z" style="fill: rgb(240, 240, 240); transform-origin: 420.47px 160.87px;" id="ela60x36qcdik" class="animable"></path><path d="M467.66,172a48.52,48.52,0,1,1-82.74-44.16c3.37-3.62,3.58-3.77.26-.27a49.33,49.33,0,0,0-1.28,11.08A48.51,48.51,0,0,0,467.66,172Z" style="fill: rgb(235, 235, 235); transform-origin: 419.782px 167.231px;" id="elx2wtv8c119n" class="animable"></path></g></g><g id="freepik--Clouds--inject-36" class="animable" style="transform-origin: 84.975px 58.369px;"><g id="freepik--clouds--inject-36" class="animable" style="transform-origin: 84.975px 58.369px;"><path d="M82.75,40,75,44.47a8.89,8.89,0,0,0,.07-1V41.2c0-4-2.81-5.6-6.26-3.61a12.09,12.09,0,0,0-3.73,3.59c-.57-5-4.51-6.89-9.29-4.13-5.17,3-9.36,10.25-9.36,16.22v3.35a8.8,8.8,0,0,0,.79,3.89L40.8,64.22a7.67,7.67,0,0,0-3.47,6c0,2.21,1.55,3.11,3.47,2L82.75,48a7.68,7.68,0,0,0,3.48-6C86.23,39.79,84.67,38.9,82.75,40Z" style="fill: rgb(240, 240, 240); transform-origin: 61.78px 54.2367px;" id="elyq8hrsqudml" class="animable"></path><path d="M130,56.27l-5.84,3.37a6.78,6.78,0,0,0,.05-.77V57.18c0-3-2.12-4.24-4.73-2.73a9.25,9.25,0,0,0-2.81,2.71c-.43-3.79-3.4-5.2-7-3.12a15.65,15.65,0,0,0-7.07,12.24v2.53a6.74,6.74,0,0,0,.6,2.94l-4.85,2.8a5.8,5.8,0,0,0-2.62,4.54c0,1.67,1.17,2.35,2.62,1.51L130,62.32a5.78,5.78,0,0,0,2.62-4.54C132.59,56.11,131.42,55.43,130,56.27Z" style="fill: rgb(240, 240, 240); transform-origin: 114.175px 67.0194px;" id="elg9bl2fr7zdq" class="animable"></path></g></g><g id="freepik--Truck--inject-36" class="animable" style="transform-origin: 241.323px 255.197px;"><g id="freepik--truck--inject-36" class="animable" style="transform-origin: 241.323px 255.197px;"><g id="freepik--Back--inject-36" class="animable" style="transform-origin: 181.27px 275.775px;"><path d="M109.18,302.67a22.14,22.14,0,0,1-1.73,9.14h0A11.33,11.33,0,0,1,103,317l-.15.09,0,0-11.14,6.42h0l-4.52-9-.31-.6a36.69,36.69,0,0,1-6.75-6.87c-.5-.63-1-1.28-1.42-1.95a49.52,49.52,0,0,1-6.42-13.12,39.93,39.93,0,0,1-1.94-10.91l-.08-.15-1.14-2.26L66.7,274l-1-2,9.93-5.75h0l.67-.39.28-.16a10,10,0,0,1,5-1.3,16.43,16.43,0,0,1,8.11,2.46C100.47,273.13,109.18,289.14,109.18,302.67Z" style="fill: rgb(38, 50, 56); transform-origin: 87.4433px 293.955px;" id="elce9t3o7fa5r" class="animable"></path><path d="M59,286.74c0,11.67,6.48,25.18,15.15,32.65,0,0,0,0,0,0a28.58,28.58,0,0,0,4.26,3.05c10.75,6.22,19.47.27,19.46-13.27,0-10.22-5-21.87-12-29.62,0,0,0,0-.06-.06a31.31,31.31,0,0,0-7.36-6.06C67.66,267.27,59,273.21,59,286.74Z" style="fill: rgb(55, 71, 79); transform-origin: 78.435px 297.952px;" id="elken9ss0fyin" class="animable"></path><path d="M78.4,281.64c-6.83-3.95-12.38.16-12.38,9.19s5.55,19.54,12.38,23.49,12.39-.17,12.39-9.19S85.24,285.59,78.4,281.64Z" style="fill: rgb(69, 90, 100); transform-origin: 78.405px 297.979px;" id="el1398jl9dycx9" class="animable"></path><path d="M59,286.74c0,11.67,6.48,25.18,15.15,32.65a55.11,55.11,0,0,1-12.34-23.88c-1.65-7.8-1-19,5.67-21.83s15.54,3.13,18.33,5.85a31.31,31.31,0,0,0-7.36-6.06C67.66,267.27,59,273.21,59,286.74Z" style="fill: rgb(69, 90, 100); transform-origin: 72.405px 295.202px;" id="elbeaspbai88q" class="animable"></path><path d="M78.4,289.5c-3.55-2.05-6.42.08-6.42,4.77s2.87,10.14,6.42,12.19,6.43-.09,6.43-4.77S82,291.55,78.4,289.5Z" style="fill: rgb(224, 224, 224); transform-origin: 78.405px 297.979px;" id="el499wi45x6b9" class="animable"></path><path d="M76.35,289.41a5.28,5.28,0,0,0-1.41-.57c-1.78.48-3,2.43-3,5.43A16.19,16.19,0,0,0,75.59,304a7.32,7.32,0,0,0,.76.52c3.16,1.82,5.71-.07,5.71-4.24S79.51,291.24,76.35,289.41Z" style="fill: rgb(245, 245, 245); transform-origin: 77px 297.026px;" id="elok91b7ezxk" class="animable"></path><polygon points="64.83 259.26 64.83 263.98 203.74 344.18 203.74 339.46 64.83 259.26" style="fill: rgb(69, 90, 100); transform-origin: 134.285px 301.72px;" id="elvrsmkx97pib" class="animable"></polygon><path d="M107.7,288.74l-7.59-4.39v25.79c0,1.39,1,1.95,2.17,1.25l6-3.45-.57-.34Z" style="fill: rgb(255, 193, 0); transform-origin: 104.195px 298.021px;" id="el3og7h0yxsfj" class="animable"></path><g id="elz6xpinddbu"><path d="M107.7,288.74l-7.59-4.39v25.79c0,1.39,1,1.95,2.17,1.25l6-3.45-.57-.34Z" style="fill: rgb(255, 255, 255); opacity: 0.7; transform-origin: 104.195px 298.021px;" class="animable"></path></g><polygon points="107.7 288.74 107.7 302.89 142.45 322.95 142.45 308.8 107.7 288.74" style="fill: rgb(55, 71, 79); transform-origin: 125.075px 305.845px;" id="el8w9gpmdjhac" class="animable"></polygon><polygon points="142.45 322.95 107.7 302.89 105.68 304.09 142.45 325.29 142.45 322.95" style="fill: rgb(38, 50, 56); transform-origin: 124.065px 314.09px;" id="el8klf9zocxpm" class="animable"></polygon><polygon points="105.69 306.45 105.69 304.1 142.45 325.29 142.45 327.67 105.69 306.45" style="fill: rgb(69, 90, 100); transform-origin: 124.07px 315.885px;" id="el1yxr3offaic" class="animable"></polygon><polygon points="142.45 304.08 142.45 332.39 171.05 348.9 171.05 320.59 142.45 304.08" style="fill: rgb(55, 71, 79); transform-origin: 156.75px 326.49px;" id="elh42767y32ud" class="animable"></polygon><polygon points="171.05 320.59 171.05 348.9 199.65 365.41 199.65 337.11 171.05 320.59" style="fill: rgb(55, 71, 79); transform-origin: 185.35px 343px;" id="elyqtgnnttr8m" class="animable"></polygon><polygon points="199.65 365.41 207.82 360.69 207.82 337.1 203.74 339.46 199.65 337.11 199.65 365.41" style="fill: rgb(38, 50, 56); transform-origin: 203.735px 351.255px;" id="ellpy1ep42spc" class="animable"></polygon><polygon points="170.02 348.3 170.02 320 172.06 321.18 172.06 349.48 170.02 348.3" style="fill: rgb(38, 50, 56); transform-origin: 171.04px 334.74px;" id="elted1dva1tzd" class="animable"></polygon><polygon points="184.32 337.69 184.32 332.97 186.36 334.15 186.37 338.87 184.32 337.69" style="fill: rgb(224, 224, 224); transform-origin: 185.345px 335.92px;" id="elcjo3153hv0c" class="animable"></polygon><polygon points="155.72 321.19 155.72 316.47 157.76 317.64 157.77 322.37 155.72 321.19" style="fill: rgb(224, 224, 224); transform-origin: 156.745px 319.42px;" id="elpc3i32q3p5s" class="animable"></polygon><g id="el4ew51pm9pik"><polygon points="140.36 302.87 140.36 321.75 138.37 322.94 138.37 325.31 142.45 327.67 142.45 304.08 140.36 302.87" style="opacity: 0.2; transform-origin: 140.41px 315.27px;" class="animable"></polygon></g><polygon points="56.66 254.55 203.74 339.46 203.75 330.06 56.66 245.15 56.66 254.55" style="fill: rgb(255, 193, 0); transform-origin: 130.205px 292.305px;" id="elpgozkxogbk7" class="animable"></polygon><g id="el8t1fcbbssm9"><g style="opacity: 0.6; transform-origin: 130.205px 292.305px;" class="animable"><polygon points="56.66 254.55 203.74 339.46 203.75 330.06 56.66 245.15 56.66 254.55" style="fill: rgb(255, 255, 255); transform-origin: 130.205px 292.305px;" id="el1ow2pmvisgw" class="animable"></polygon></g></g><polygon points="203.74 339.46 207.82 337.1 207.82 327.67 203.74 330.03 203.74 339.46" style="fill: rgb(255, 193, 0); transform-origin: 205.78px 333.565px;" id="ela39fvrolc5p" class="animable"></polygon><g id="el1j997zgty38"><g style="opacity: 0.5; transform-origin: 205.78px 333.565px;" class="animable"><polygon points="203.74 339.46 207.82 337.1 207.82 327.67 203.74 330.03 203.74 339.46" style="fill: rgb(255, 255, 255); transform-origin: 205.78px 333.565px;" id="eljteijwsxe5a" class="animable"></polygon></g></g><g id="elyg19vuncez"><g style="opacity: 0.1; transform-origin: 205.78px 333.565px;" class="animable"><polygon points="203.74 339.46 207.82 337.1 207.82 327.67 203.74 330.03 203.74 339.46" id="el0jsv8pe31zit" class="animable" style="transform-origin: 205.78px 333.565px;"></polygon></g></g><polygon points="158.8 186.14 56.66 245.15 203.74 330.03 305.88 271.06 158.8 186.14" style="fill: rgb(255, 193, 0); transform-origin: 181.27px 258.085px;" id="el7o3lc11cwjx" class="animable"></polygon><g id="elp7lbyidm9h"><g style="opacity: 0.8; transform-origin: 181.27px 258.085px;" class="animable"><polygon points="158.8 186.14 56.66 245.15 203.74 330.03 305.88 271.06 158.8 186.14" style="fill: rgb(255, 255, 255); transform-origin: 181.27px 258.085px;" id="elior8se1dxhd" class="animable"></polygon></g></g></g><g id="freepik--Gift--inject-36" class="animable" style="transform-origin: 181.265px 199.115px;"><g id="freepik--Box--inject-36" class="animable" style="transform-origin: 181.265px 199.115px;"><g id="freepik--box--inject-36" class="animable" style="transform-origin: 181.265px 199.115px;"><polygon points="68.91 129.53 199.65 205.01 293.62 150.76 162.88 75.28 68.91 129.53" style="fill: rgb(69, 90, 100); transform-origin: 181.265px 140.145px;" id="elrc5jraf8s4m" class="animable"></polygon><polygon points="199.65 322.95 199.65 205.01 68.91 129.53 68.91 247.47 199.65 322.95" style="fill: rgb(55, 71, 79); transform-origin: 134.28px 226.24px;" id="eldmoggx3og8j" class="animable"></polygon><polygon points="199.65 322.95 293.62 268.7 293.62 150.76 199.65 205.01 199.65 322.95" style="fill: rgb(38, 50, 56); transform-origin: 246.635px 236.855px;" id="elfui8w1urieu" class="animable"></polygon></g><path d="M161.91,286.74a5.68,5.68,0,0,1-2.42-4.59v-7l4.92,2.89.32-.06v.47h0v6.28a2.35,2.35,0,0,1-1,2.13,1.61,1.61,0,0,1-.77.2A2.23,2.23,0,0,1,161.91,286.74Zm.55-7.56-.36,2.46h-1.82v.51a5,5,0,0,0,2,3.91,1.08,1.08,0,0,0,1.06.11,1.59,1.59,0,0,0,.57-1.44v-5.82Zm-.7-.68,1.45-.26-2.93-1.73v4.34h1.14Z" style="fill: rgb(224, 224, 224); transform-origin: 162.114px 281.105px;" id="el6dbmgeatcpt" class="animable"></path><path d="M162.11,292.07a.39.39,0,0,0,.39-.4V286.4a.39.39,0,1,0-.78,0v5.27A.39.39,0,0,0,162.11,292.07Z" style="fill: rgb(224, 224, 224); transform-origin: 162.11px 289.04px;" id="elr9gncq6jxyp" class="animable"></path><path d="M164.4,293.39a.38.38,0,0,0,.34-.2.39.39,0,0,0-.14-.54L160,290a.37.37,0,0,0-.53.14.39.39,0,0,0,.14.54l4.59,2.65A.45.45,0,0,0,164.4,293.39Z" style="fill: rgb(224, 224, 224); transform-origin: 162.105px 291.665px;" id="el8xxtybks047" class="animable"></path><path d="M178.15,301.54a.81.81,0,0,0,.43-.11,1,1,0,0,0,.47-.95V299.4a.4.4,0,0,0-.79,0v1.08c0,.16,0,.25-.08.27a.34.34,0,0,1-.25-.07,2.33,2.33,0,0,1-.74-1.79v-7a.39.39,0,0,0-.39-.4.4.4,0,0,0-.4.4v7a3,3,0,0,0,1.12,2.47A1.29,1.29,0,0,0,178.15,301.54Z" style="fill: rgb(224, 224, 224); transform-origin: 177.726px 296.515px;" id="eltipz8wwnz4m" class="animable"></path><path d="M171.81,289.35v-.23a3.34,3.34,0,0,1,5.44-3.14,11.15,11.15,0,0,1,5.05,8.75v.68Zm2-3a2.94,2.94,0,0,0-1.22,2.57l8.88,5.13a10.43,10.43,0,0,0-4.62-7.36,4.06,4.06,0,0,0-2-.61A2.15,2.15,0,0,0,173.82,286.32Z" style="fill: rgb(224, 224, 224); transform-origin: 177.029px 290.302px;" id="elxbaqnf0guh8" class="animable"></path><path d="M194,310.4a.39.39,0,0,0,.39-.4V296.57a.39.39,0,0,0-.39-.4.4.4,0,0,0-.4.4V310A.4.4,0,0,0,194,310.4Z" style="fill: rgb(224, 224, 224); transform-origin: 193.995px 303.285px;" id="el70wvi0ouqw2" class="animable"></path><path d="M195.17,299.63a.41.41,0,0,0,.16,0,.39.39,0,0,0,.2-.52l-1.4-3.25-1.57,1.82a.39.39,0,0,0,.6.51l.74-.86.91,2.09A.39.39,0,0,0,195.17,299.63Z" style="fill: rgb(224, 224, 224); transform-origin: 194.016px 297.749px;" id="el2gdfqjnjizx" class="animable"></path><path d="M190.37,308.32a.4.4,0,0,0,.39-.4V294.49a.4.4,0,1,0-.79,0v13.43A.4.4,0,0,0,190.37,308.32Z" style="fill: rgb(224, 224, 224); transform-origin: 190.365px 301.173px;" id="el2adjuloh4fd" class="animable"></path><path d="M191.52,297.55a.45.45,0,0,0,.16,0,.39.39,0,0,0,.2-.52l-1.4-3.25-1.57,1.81a.4.4,0,0,0,.6.52l.74-.86.91,2.09A.39.39,0,0,0,191.52,297.55Z" style="fill: rgb(224, 224, 224); transform-origin: 190.379px 295.669px;" id="elz4smzcmp2go" class="animable"></path><path d="M111.07,239.24v21.63c0,.83-.59,1.17-1.31.75L76,242.12a2.86,2.86,0,0,1-1.31-2.26V218.22c0-.84.59-1.17,1.31-.76L109.77,237A2.89,2.89,0,0,1,111.07,239.24Z" style="fill: rgb(250, 250, 250); transform-origin: 92.88px 239.542px;" id="elw8ce48x0hdo" class="animable"></path><polygon points="76.78 220.56 77.87 221.19 77.87 240.85 76.78 240.22 76.78 220.56" style="fill: rgb(69, 90, 100); transform-origin: 77.325px 230.705px;" id="elsn23b21oqfl" class="animable"></polygon><polygon points="81.22 223.12 83.1 224.23 83.1 243.89 81.22 242.79 81.22 223.12" style="fill: rgb(69, 90, 100); transform-origin: 82.16px 233.505px;" id="eleha2txkjvzp" class="animable"></polygon><polygon points="85.66 225.68 86.75 226.31 86.75 245.98 85.66 245.35 85.66 225.68" style="fill: rgb(69, 90, 100); transform-origin: 86.205px 235.83px;" id="el7mqfia9trh" class="animable"></polygon><polygon points="89.01 227.58 91.19 228.88 91.19 248.54 89.01 247.25 89.01 227.58" style="fill: rgb(69, 90, 100); transform-origin: 90.1px 238.06px;" id="eljdt4z71xffg" class="animable"></polygon><polygon points="94.54 230.81 95.63 231.44 95.63 251.1 94.54 250.47 94.54 230.81" style="fill: rgb(69, 90, 100); transform-origin: 95.085px 240.955px;" id="elol8rlkfzve" class="animable"></polygon><polygon points="97.73 232.61 100.07 234 100.07 253.66 97.73 252.28 97.73 232.61" style="fill: rgb(69, 90, 100); transform-origin: 98.9px 243.135px;" id="elw2zvfyyr16" class="animable"></polygon><polygon points="103.42 235.93 104.51 236.56 104.5 256.23 103.42 255.59 103.42 235.93" style="fill: rgb(69, 90, 100); transform-origin: 103.965px 246.08px;" id="ell6rqqhcvge" class="animable"></polygon><polygon points="105.95 237.37 106.49 237.69 106.49 257.35 105.95 257.04 105.95 237.37" style="fill: rgb(69, 90, 100); transform-origin: 106.22px 247.36px;" id="elhtb8mtcu5i" class="animable"></polygon><polygon points="101.39 234.86 101.94 235.17 101.94 254.84 101.39 254.52 101.39 234.86" style="fill: rgb(69, 90, 100); transform-origin: 101.665px 244.85px;" id="eloybodjg5kkj" class="animable"></polygon><polygon points="92.45 229.62 93 229.94 93 249.6 92.45 249.29 92.45 229.62" style="fill: rgb(69, 90, 100); transform-origin: 92.725px 239.61px;" id="elgmbjq75536a" class="animable"></polygon><polygon points="87.55 226.81 88.1 227.13 88.1 246.79 87.55 246.48 87.55 226.81" style="fill: rgb(69, 90, 100); transform-origin: 87.825px 236.8px;" id="el1ze0pj5741e" class="animable"></polygon><polygon points="84.04 224.87 84.58 225.19 84.58 244.85 84.03 244.53 84.04 224.87" style="fill: rgb(69, 90, 100); transform-origin: 84.305px 234.86px;" id="elrk292m7src" class="animable"></polygon><polygon points="79.27 221.97 79.81 222.29 79.81 241.95 79.27 241.64 79.27 221.97" style="fill: rgb(69, 90, 100); transform-origin: 79.54px 231.96px;" id="elsqz9uzf65c" class="animable"></polygon><polygon points="107.86 238.49 108.94 239.12 108.94 258.79 107.85 258.16 107.86 238.49" style="fill: rgb(69, 90, 100); transform-origin: 108.395px 248.64px;" id="el5xsabqq50o9" class="animable"></polygon></g><g id="freepik--Ribbon--inject-36" class="animable" style="transform-origin: 181.282px 194.229px;"><polygon points="142.45 289.93 142.45 171.99 126.11 162.55 126.11 280.49 142.45 289.93" style="fill: rgb(255, 193, 0); transform-origin: 134.28px 226.24px;" id="elzx4o82k143j" class="animable"></polygon><g id="el6r6fn20xmsb"><g style="opacity: 0.3; transform-origin: 134.28px 226.24px;" class="animable"><polygon points="142.45 289.93 142.45 171.99 126.11 162.55 126.11 280.49 142.45 289.93" id="eloa4fep9dplo" class="animable" style="transform-origin: 134.28px 226.24px;"></polygon></g></g><polygon points="238.48 300.54 238.48 182.6 254.82 173.16 254.82 291.1 238.48 300.54" style="fill: rgb(255, 193, 0); transform-origin: 246.65px 236.85px;" id="el0mihmm3ha9ik" class="animable"></polygon><g id="el3qfu95bppf6"><g style="opacity: 0.45; transform-origin: 246.65px 236.85px;" class="animable"><polygon points="238.48 300.54 238.48 182.6 254.82 173.16 254.82 291.1 238.48 300.54" id="elygp2qugb1ys" class="animable" style="transform-origin: 246.65px 236.85px;"></polygon></g></g><polygon points="126.11 162.55 220.08 108.3 236.42 117.73 142.45 171.99 126.11 162.55" style="fill: rgb(255, 193, 0); transform-origin: 181.265px 140.145px;" id="elvwbhqomofj" class="animable"></polygon><g id="elitn3fwvu5mf"><g style="opacity: 0.15; transform-origin: 181.265px 140.145px;" class="animable"><polygon points="126.11 162.55 220.08 108.3 236.42 117.73 142.45 171.99 126.11 162.55" id="ells4fkn5lruk" class="animable" style="transform-origin: 181.265px 140.145px;"></polygon></g></g><g id="eler17py2h0sd"><g style="opacity: 0.15; transform-origin: 171.61px 145.695px;" class="animable"><polygon points="161.95 141.86 178.37 151.25 181.27 149.58 164.93 140.14 161.95 141.86" id="el07e9lnmlg8us" class="animable" style="transform-origin: 171.61px 145.695px;"></polygon></g></g><polygon points="254.82 173.16 124.06 97.69 107.72 107.12 238.48 182.6 254.82 173.16" style="fill: rgb(255, 193, 0); transform-origin: 181.27px 140.145px;" id="elkcji66mi7io" class="animable"></polygon><g id="elt8zkgf316t9"><g style="opacity: 0.15; transform-origin: 181.27px 140.145px;" class="animable"><polygon points="254.82 173.16 124.06 97.69 107.72 107.12 238.48 182.6 254.82 173.16" id="el63ur9ahsc6j" class="animable" style="transform-origin: 181.27px 140.145px;"></polygon></g></g><g id="freepik--ribbon--inject-36" class="animable" style="transform-origin: 181.282px 134.119px;"><g id="el3s8qy614vq6"><path d="M188.44,139s23.2,20.26,61.09,15.87c0,0-15.46,11-35.15,8.65,0,0,2.48,10.9,17.81,16.8,0,0-43.51-.64-51.13-36.37Z" style="opacity: 0.2; transform-origin: 215.295px 159.66px;" class="animable"></path></g><path d="M187.47,136.91s23.2,19.26,61.09,14.87c0,0-16.08,10.53-35.77,8.15,0,0,2.82,7.18,19.4,15.93,0,0-41.41.37-52.11-34Z" style="fill: rgb(255, 193, 0); transform-origin: 214.32px 156.385px;" id="elf2oqby2j0b" class="animable"></path><g id="ellv4pjz04ufp"><path d="M187.47,136.91s23.2,19.26,61.09,14.87c0,0-16.08,10.53-35.77,8.15,0,0,2.82,7.18,19.4,15.93,0,0-41.41.37-52.11-34Z" style="fill: rgb(255, 255, 255); opacity: 0.25; transform-origin: 214.32px 156.385px;" class="animable"></path></g><g id="elbnrdpb3lq57"><path d="M185.84,146.62c8.16,2.17,16.25-1.35,16.25-1.35h0l-1.52-.67-.23-.11-1.35-.63-.3-.15-1.23-.61-.31-.15-1.12-.59-.31-.17-1-.56a2.69,2.69,0,0,0-.29-.16l-.94-.55-.26-.15-.86-.52-.24-.15-.77-.47-.22-.15-.67-.44-.2-.13-.58-.39-.18-.12-.48-.34-.16-.11-.39-.29-.13-.1-.3-.21-.13-.11-.17-.13-.12-.1-.07,0-.06-.05h0l-2.42,1.62-5,3.32c10.7,34.38,52.1,34,52.11,34h0C210.88,174.87,188.5,158.7,185.84,146.62Z" style="opacity: 0.1; transform-origin: 206.135px 156.43px;" class="animable"></path></g><path d="M238.91,111.71s-4.61-5.38-18.74-2.95c-8.53,1.47-23,11.41-30.16,28-.91,2.1-2.94,2.8-4,4.21a8.14,8.14,0,0,1-.82.89l-4.47,0c0-15.46,8.67-31.07,16.88-40.1s21.71-13.45,31.35-13.82a21.75,21.75,0,0,1,9.94,1.91C241.49,97.19,242.57,104.44,238.91,111.71Z" style="fill: rgb(255, 193, 0); transform-origin: 210.993px 114.889px;" id="eltj7ucv227s" class="animable"></path><g id="el4pjp5ozozcj"><path d="M238.91,111.71s-4.61-5.38-18.74-2.95c-8.53,1.47-23,11.41-30.16,28-.91,2.1-2.94,2.8-4,4.21a8.14,8.14,0,0,1-.82.89l-4.47,0c0-15.46,8.67-31.07,16.88-40.1s21.71-13.45,31.35-13.82a21.75,21.75,0,0,1,9.94,1.91C241.49,97.19,242.57,104.44,238.91,111.71Z" style="fill: rgb(255, 255, 255); opacity: 0.5; transform-origin: 210.993px 114.889px;" class="animable"></path></g><g id="elvelauoukoss"><path d="M191,134.64h0s-8.05-2.72-4.73-15.61a54.93,54.93,0,0,0-5.54,22.83l4.47,0a8.14,8.14,0,0,0,.82-.89c1.09-1.41,3.12-2.11,4-4.21C190.31,136,190.65,135.33,191,134.64Z" style="fill: rgb(255, 193, 0); opacity: 0.3; transform-origin: 185.865px 130.445px;" class="animable"></path></g><g id="eli1vrnexghf"><path d="M191,134.64h0s-8.05-2.72-4.73-15.61a54.93,54.93,0,0,0-5.54,22.83l4.47,0a8.14,8.14,0,0,0,.82-.89c1.09-1.41,3.12-2.11,4-4.21C190.31,136,190.65,135.33,191,134.64Z" style="opacity: 0.1; transform-origin: 185.865px 130.445px;" class="animable"></path></g><g id="elmr748rt638"><path d="M238.91,111.71s.71-17-10-23.77a21.75,21.75,0,0,1,9.94,1.91C241.49,97.19,242.57,104.44,238.91,111.71Z" style="fill: rgb(255, 193, 0); opacity: 0.3; transform-origin: 235.086px 99.814px;" class="animable"></path></g><g id="elp81vu9ewkgb"><path d="M238.91,111.71s.71-17-10-23.77a21.75,21.75,0,0,1,9.94,1.91C241.49,97.19,242.57,104.44,238.91,111.71Z" style="opacity: 0.1; transform-origin: 235.086px 99.814px;" class="animable"></path></g><path d="M230.66,121.62a32.27,32.27,0,0,0,8.25-9.92c3.67-7.27,2.58-14.52,0-21.86,8.29,3.67,13.24,14.44,15.13,23.12,1,4.86,1.12,9.1.3,11.05-2.32,5.47-15.94,27.58-74.22,17.84l.07-6.12C194.73,134.85,220.22,130.41,230.66,121.62Z" style="fill: rgb(255, 193, 0); transform-origin: 217.501px 117.069px;" id="elfo7r1082bbs" class="animable"></path><g id="elhevknl6cwsf"><path d="M230.66,121.62a32.27,32.27,0,0,0,8.25-9.92c3.67-7.27,2.58-14.52,0-21.86,8.29,3.67,13.24,14.44,15.13,23.12,1,4.86,1.12,9.1.3,11.05-2.32,5.47-15.94,27.58-74.22,17.84l.07-6.12C194.73,134.85,220.22,130.41,230.66,121.62Z" style="fill: rgb(255, 255, 255); opacity: 0.4; transform-origin: 217.501px 117.069px;" class="animable"></path></g><g id="elwgv0chvs6v"><path d="M174.13,139s-23.2,20.26-61.09,15.87c0,0,15.46,11,35.15,8.65,0,0-2.48,10.9-17.81,16.8,0,0,43.51-.64,51.13-36.37Z" style="opacity: 0.2; transform-origin: 147.275px 159.66px;" class="animable"></path></g><path d="M175.1,136.91S151.9,156.17,114,151.78c0,0,16.08,10.53,35.77,8.15,0,0-2.82,7.18-19.4,15.93,0,0,41.41.37,52.11-34Z" style="fill: rgb(255, 193, 0); transform-origin: 148.24px 156.385px;" id="elamqhmg3appd" class="animable"></path><g id="elpfx38tks7h"><path d="M175.1,136.91S151.9,156.17,114,151.78c0,0,16.08,10.53,35.77,8.15,0,0-2.82,7.18-19.4,15.93,0,0,41.41.37,52.11-34Z" style="fill: rgb(255, 255, 255); opacity: 0.25; transform-origin: 148.24px 156.385px;" class="animable"></path></g><g id="eljv07mt9yer"><path d="M176.74,146.62c-8.17,2.17-16.26-1.35-16.26-1.35h0l1.52-.67.23-.11,1.35-.63.3-.15,1.23-.61.31-.15,1.13-.59.3-.17,1-.56.29-.16.94-.55.26-.15.86-.52.24-.15.77-.47.22-.15.67-.44.2-.13.58-.39.18-.12.49-.34.15-.11.39-.29.13-.1.3-.21.13-.11.17-.13.12-.1.07,0,.06-.05h0l2.42,1.62,5,3.32c-10.7,34.38-52.1,34-52.11,34h0C151.69,174.87,174.07,158.7,176.74,146.62Z" style="opacity: 0.1; transform-origin: 156.435px 156.43px;" class="animable"></path></g><path d="M123.67,111.71s4.6-5.38,18.73-2.95c8.53,1.47,23,11.41,30.17,28,.9,2.1,2.93,2.8,4,4.21a8.14,8.14,0,0,0,.82.89l4.47,0c0-15.46-8.67-31.07-16.88-40.1s-21.71-13.45-31.35-13.82a21.75,21.75,0,0,0-9.94,1.91C121.08,97.19,120,104.44,123.67,111.71Z" style="fill: rgb(255, 193, 0); transform-origin: 151.584px 114.889px;" id="el8rtygt0pd98" class="animable"></path><g id="eljkj19uues8h"><path d="M123.67,111.71s4.6-5.38,18.73-2.95c8.53,1.47,23,11.41,30.17,28,.9,2.1,2.93,2.8,4,4.21a8.14,8.14,0,0,0,.82.89l4.47,0c0-15.46-8.67-31.07-16.88-40.1s-21.71-13.45-31.35-13.82a21.75,21.75,0,0,0-9.94,1.91C121.08,97.19,120,104.44,123.67,111.71Z" style="fill: rgb(255, 255, 255); opacity: 0.5; transform-origin: 151.584px 114.889px;" class="animable"></path></g><g id="eltc8a016ul2c"><path d="M171.59,134.64h0s8-2.72,4.73-15.61a54.93,54.93,0,0,1,5.54,22.83l-4.47,0a8.14,8.14,0,0,1-.82-.89c-1.09-1.41-3.12-2.11-4-4.21C172.26,136,171.92,135.33,171.59,134.64Z" style="fill: rgb(255, 193, 0); opacity: 0.3; transform-origin: 176.725px 130.445px;" class="animable"></path></g><g id="elaml8gdqec2j"><path d="M171.59,134.64h0s8-2.72,4.73-15.61a54.93,54.93,0,0,1,5.54,22.83l-4.47,0a8.14,8.14,0,0,1-.82-.89c-1.09-1.41-3.12-2.11-4-4.21C172.26,136,171.92,135.33,171.59,134.64Z" style="opacity: 0.1; transform-origin: 176.725px 130.445px;" class="animable"></path></g><g id="elywo8sj9jfoj"><path d="M123.67,111.71s-.72-17,10-23.77a21.75,21.75,0,0,0-9.94,1.91C121.08,97.19,120,104.44,123.67,111.71Z" style="fill: rgb(255, 193, 0); opacity: 0.3; transform-origin: 127.491px 99.814px;" class="animable"></path></g><g id="elng2ct6wqmzf"><path d="M123.67,111.71s-.72-17,10-23.77a21.75,21.75,0,0,0-9.94,1.91C121.08,97.19,120,104.44,123.67,111.71Z" style="opacity: 0.1; transform-origin: 127.491px 99.814px;" class="animable"></path></g><path d="M131.91,121.62a32.27,32.27,0,0,1-8.25-9.92c-3.67-7.27-2.58-14.52,0-21.86-8.3,3.67-13.25,14.44-15.13,23.12-1,4.86-1.13,9.1-.31,11.05,2.32,5.47,15.94,27.58,74.22,17.84l-.06-6.12C167.84,134.85,142.35,130.41,131.91,121.62Z" style="fill: rgb(255, 193, 0); transform-origin: 145.061px 117.069px;" id="elks4mpyqr6vt" class="animable"></path><g id="eltmu80duhvt"><path d="M131.91,121.62a32.27,32.27,0,0,1-8.25-9.92c-3.67-7.27-2.58-14.52,0-21.86-8.3,3.67-13.25,14.44-15.13,23.12-1,4.86-1.13,9.1-.31,11.05,2.32,5.47,15.94,27.58,74.22,17.84l-.06-6.12C167.84,134.85,142.35,130.41,131.91,121.62Z" style="fill: rgb(255, 255, 255); opacity: 0.4; transform-origin: 145.061px 117.069px;" class="animable"></path></g><path d="M189.26,137.82a3.35,3.35,0,0,0-2-2.72,15.55,15.55,0,0,0-6-.87,15.08,15.08,0,0,0-6.18,1,3.29,3.29,0,0,0-1.82,2.62c-.21,1.84-.34,4.94.87,6.69a10.65,10.65,0,0,0,7.15,2.57,10.48,10.48,0,0,0,7.11-2.57C189.59,142.75,189.47,139.66,189.26,137.82Z" style="fill: rgb(255, 193, 0); transform-origin: 181.259px 140.661px;" id="elxwamoeudvk" class="animable"></path><g id="el3jf8wk37rcs"><path d="M189.26,137.82a3.35,3.35,0,0,0-2-2.72,15.55,15.55,0,0,0-6-.87,15.08,15.08,0,0,0-6.18,1,3.29,3.29,0,0,0-1.82,2.62c-.21,1.84-.34,4.94.87,6.69a10.65,10.65,0,0,0,7.15,2.57,10.48,10.48,0,0,0,7.11-2.57C189.59,142.75,189.47,139.66,189.26,137.82Z" style="fill: rgb(255, 255, 255); opacity: 0.5; transform-origin: 181.259px 140.661px;" class="animable"></path></g><g id="elzzdqiiw7r7"><path d="M189.38,140.71c0,.72-.8,1.87-2.36,3a10,10,0,0,1-8.74.62,7.26,7.26,0,0,1-5.1-5.64c-.14,1.84-.09,4.33.95,5.84a10.65,10.65,0,0,0,7.15,2.57,10.48,10.48,0,0,0,7.11-2.57A7.44,7.44,0,0,0,189.38,140.71Z" style="fill: rgb(255, 193, 0); opacity: 0.3; transform-origin: 181.252px 142.896px;" class="animable"></path></g><g id="eltcsldztmlem"><path d="M189.38,140.71c0,.72-.8,1.87-2.36,3a10,10,0,0,1-8.74.62,7.26,7.26,0,0,1-5.1-5.64c-.14,1.84-.09,4.33.95,5.84a10.65,10.65,0,0,0,7.15,2.57,10.48,10.48,0,0,0,7.11-2.57A7.44,7.44,0,0,0,189.38,140.71Z" style="opacity: 0.1; transform-origin: 181.252px 142.896px;" class="animable"></path></g></g></g></g><g id="freepik--Cab--inject-36" class="animable" style="transform-origin: 316.908px 300.322px;"><g id="freepik--percentage-box--inject-36" class="animable" style="transform-origin: 400.855px 260.603px;"><path d="M396.2,250.37l7.52-4.37a1.74,1.74,0,0,1,1.76-.17c.44.26,1.33.8,1.77,1a1.74,1.74,0,0,1,.74,1.61v18.06a5.45,5.45,0,0,1-2.48,4.28L398,275.2a1.75,1.75,0,0,1-1.75.18c-.45-.26-1.34-.81-1.79-1.06a1.75,1.75,0,0,1-.73-1.61V254.65A5.45,5.45,0,0,1,396.2,250.37Z" style="fill: rgb(250, 250, 250); transform-origin: 400.86px 260.601px;" id="el3ojcdif79kw" class="animable"></path><path d="M393.72,254.65v18.06a1.74,1.74,0,0,0,.73,1.61c.44.24,1.11.67,1.74,1a1.79,1.79,0,0,1-.67-1.57V255.71a5,5,0,0,1,.72-2.43l-1.79-1.06A5,5,0,0,0,393.72,254.65Z" style="fill: rgb(224, 224, 224); transform-origin: 394.975px 263.77px;" id="el6jg8jkkm23u" class="animable"></path><path d="M405.51,270.83,398,275.2c-1.37.79-2.47.15-2.47-1.42V255.71a5.46,5.46,0,0,1,2.47-4.28l7.52-4.37c1.37-.79,2.48-.15,2.48,1.43v18.06A5.45,5.45,0,0,1,405.51,270.83Z" style="fill: rgb(240, 240, 240); transform-origin: 401.765px 261.13px;" id="elisxdf6o54p" class="animable"></path></g><path d="M395.76,285.84a.64.64,0,0,1-.54-.32.62.62,0,0,1,.23-.85l5.24-3a.62.62,0,0,0,.31-.54V261.32a.63.63,0,1,1,1.25,0V281.1a1.89,1.89,0,0,1-.94,1.63l-5.24,3A.59.59,0,0,1,395.76,285.84Z" style="fill: rgb(38, 50, 56); transform-origin: 398.696px 273.225px;" id="elh5133fexrkf" class="animable"></path><path d="M239.84,388.24l21.25-9.82s-1.66-20-15.69-15.21S239.84,388.24,239.84,388.24Z" style="fill: rgb(255, 193, 0); transform-origin: 249.198px 375.354px;" id="elds6vf4d98mv" class="animable"></path><g id="elc3l4rqx4yx6"><g style="opacity: 0.5; transform-origin: 249.198px 375.354px;" class="animable"><path d="M239.84,388.24l21.25-9.82s-1.66-20-15.69-15.21S239.84,388.24,239.84,388.24Z" id="elpdg7bdutl3l" class="animable" style="transform-origin: 249.198px 375.354px;"></path></g></g><path d="M251.53,385.74,247,376.66l10.88-6.3h0c3.47-2,8.07-1.76,13.13,1.16,10.75,6.21,19.46,22.21,19.46,35.75,0,7.08-2.39,12.09-6.21,14.36h0l-.16.09h0l-11.15,6.44-4.83-9.58C258.93,411.6,251.88,397.82,251.53,385.74Z" style="fill: rgb(38, 50, 56); transform-origin: 268.735px 398.609px;" id="elixzlczvxpks" class="animable"></path><path d="M240.18,391.33c0,11.67,6.48,25.18,15.16,32.65l0,0a29.35,29.35,0,0,0,4.27,3.07c10.75,6.2,19.47.26,19.46-13.28,0-10.22-5-21.87-12-29.62l-.06-.06a31.06,31.06,0,0,0-7.36-6.06C248.89,371.86,240.18,377.8,240.18,391.33Z" style="fill: rgb(55, 71, 79); transform-origin: 259.625px 402.549px;" id="ellegiyeft6z" class="animable"></path><path d="M259.64,386.23c-6.84-4-12.38.16-12.38,9.19s5.54,19.54,12.38,23.49,12.38-.17,12.38-9.19S266.48,390.18,259.64,386.23Z" style="fill: rgb(69, 90, 100); transform-origin: 259.64px 402.559px;" id="el19ukeon238z" class="animable"></path><path d="M259.64,394.09c-3.55-2-6.42.08-6.42,4.77s2.87,10.14,6.42,12.19,6.43-.09,6.43-4.77S263.19,396.14,259.64,394.09Z" style="fill: rgb(224, 224, 224); transform-origin: 259.645px 402.58px;" id="el2740rht3jlo" class="animable"></path><path d="M257.59,394a5.42,5.42,0,0,0-1.41-.57c-1.78.48-3,2.43-3,5.43a16.25,16.25,0,0,0,3.6,9.69,8.68,8.68,0,0,0,.77.52c3.16,1.82,5.71-.07,5.71-4.24S260.75,395.82,257.59,394Z" style="fill: rgb(245, 245, 245); transform-origin: 258.22px 401.596px;" id="elbs5b96tyeih" class="animable"></path><path d="M240.18,391.33c0,11.67,6.48,25.18,15.16,32.65A55.11,55.11,0,0,1,243,400.1c-1.65-7.8-1-19,5.67-21.83s15.54,3.13,18.33,5.85a31.06,31.06,0,0,0-7.36-6.06C248.89,371.86,240.18,377.8,240.18,391.33Z" style="fill: rgb(69, 90, 100); transform-origin: 253.59px 399.792px;" id="el37k8ku90eoa" class="animable"></path><path d="M315.32,431.79l-19.25-11.12-2.53-1.46-4.85-2.82h0l-2.3-1.34a1.61,1.61,0,0,0,.1-.68,3.88,3.88,0,0,0,.09-1.07c0-14.89-10.45-33-23.41-40.44a28.5,28.5,0,0,0-3.79-1.84h0c-.57-.22-1.11-.41-1.65-.57h0c-10.24-3.1-17.87,3.12-17.87,15.86v1.93l-32-18.49V223.88h0l39.77,23,34.72,25.57L298.09,349l12.21,17.94.65.95,7.46,10.94h0l2.42,29.77.6,6.51.26,2.68h0l.6,6.44.28,3A4.82,4.82,0,0,1,315.32,431.79Z" style="fill: rgb(255, 193, 0); transform-origin: 265.224px 328.169px;" id="el617rzxu0qd" class="animable"></path><g id="elj4g1gtf8wa"><g style="opacity: 0.15; transform-origin: 265.224px 328.169px;" class="animable"><path d="M315.32,431.79l-19.25-11.12-2.53-1.46-4.85-2.82h0l-2.3-1.34a1.61,1.61,0,0,0,.1-.68,3.88,3.88,0,0,0,.09-1.07c0-14.89-10.45-33-23.41-40.44a28.5,28.5,0,0,0-3.79-1.84h0c-.57-.22-1.11-.41-1.65-.57h0c-10.24-3.1-17.87,3.12-17.87,15.86v1.93l-32-18.49V223.88h0l39.77,23,34.72,25.57L298.09,349l12.21,17.94.65.95,7.46,10.94h0l2.42,29.77.6,6.51.26,2.68h0l.6,6.44.28,3A4.82,4.82,0,0,1,315.32,431.79Z" id="el3zw62la0p19" class="animable" style="transform-origin: 265.224px 328.169px;"></path></g></g><path d="M263.2,274.81V322c0,1.74-1.21,2.44-2.71,1.57L221.35,301a6,6,0,0,1-2.72-4.71V246.62c0-1.73,1.21-2.43,2.72-1.57l23.53,13.59c1.5.87,3.85,2.4,5.24,3.43l10.55,7.75A6.94,6.94,0,0,1,263.2,274.81Z" style="fill: rgb(69, 90, 100); transform-origin: 240.915px 284.313px;" id="eluhycka78ie8" class="animable"></path><path d="M275.78,332.36a10,10,0,0,1-4.53-7.84V282.79c0-2.89,1.07-4.43,2.39-3.44l2.39,1.79a10.94,10.94,0,0,1,3.6,5.75l9.64,50.1c.39,2-.71,2.75-2.44,1.74Z" style="fill: rgb(69, 90, 100); transform-origin: 280.299px 309.114px;" id="elt2crozt6vc" class="animable"></path><g id="el3bjur483mob"><g style="opacity: 0.15; transform-origin: 240.693px 309px;" class="animable"><path d="M265.19,267.57l-15.81-11.52c-1.18-.86-3.17-2.16-4.43-2.88L216.9,237a2.06,2.06,0,0,0-2.12-.16,2.1,2.1,0,0,0-.93,1.92V366a5.51,5.51,0,0,0,2.53,4.38L234.79,381a2.48,2.48,0,0,0,1.28.38,1.83,1.83,0,0,0,.8-.17,2,2,0,0,0,.83-.72,2.89,2.89,0,0,0,.44-1.12c.66-3.36,2.7-9.38,9-11.91a16.21,16.21,0,0,1,10.28-.3h0a27.43,27.43,0,0,1,5.14,1.93c.72.35,1.38.7,2,1a2.1,2.1,0,0,0,2.12.2,1.55,1.55,0,0,0,.51-.51,2.43,2.43,0,0,0,.35-1.36V272.15A6.26,6.26,0,0,0,265.19,267.57Zm.75,101.88a1.12,1.12,0,0,1-.71-.15h0l-.17-.08a29.43,29.43,0,0,0-8.58-3.36,16.78,16.78,0,0,0-9.72.62c-6.06,2.44-8.43,7.82-9.35,11.48v0c-.12.43-.21.81-.28,1.19a1.42,1.42,0,0,1-.69,1.09,1.22,1.22,0,0,1-1.12-.17L216.9,369.46a4.49,4.49,0,0,1-2-3.47V238.74a1.15,1.15,0,0,1,.4-1,.68.68,0,0,1,.34-.08,1.52,1.52,0,0,1,.74.24l28.05,16.2c1.24.71,3.18,2,4.33,2.81l15.82,11.53a5.24,5.24,0,0,1,1.9,3.73v96.29a1.11,1.11,0,0,1-.34,1,.48.48,0,0,1-.17.05Z" id="elfui9gj260ja" class="animable" style="transform-origin: 240.693px 309px;"></path></g></g><path d="M423.19,365.87s-14.51,20.06-46.16,39c-26.27,15.7-54.9,19.37-54.9,19.37l-3.74-45.42,101.06-58.36Z" style="fill: rgb(255, 193, 0); transform-origin: 370.79px 372.35px;" id="elr554uhmo25" class="animable"></path><g id="eljiookya1m7e"><g style="opacity: 0.3; transform-origin: 370.79px 372.35px;" class="animable"><path d="M423.19,365.87s-14.51,20.06-46.16,39c-26.27,15.7-54.9,19.37-54.9,19.37l-3.74-45.42,101.06-58.36Z" id="elaxl6bo242y" class="animable" style="transform-origin: 370.79px 372.35px;"></path></g></g><path d="M419.45,320.44s-14.51,20.07-46.16,39c-26.27,15.7-54.9,19.37-54.9,19.37L298.13,349l101.08-58.35Z" style="fill: rgb(255, 193, 0); transform-origin: 358.79px 334.73px;" id="elwbmyqzktle" class="animable"></path><path d="M425,359.18c-.18-.19-.34-.16-.53.16,0,0-14.51,20.06-46.17,39C352,414,323.39,417.7,323.39,417.7c-12.28,1.12-27.32-11.85-27.32-11.85l2.07-1.51s14.26,10.8,21.51,10.8c6.25,0,28.59-2.84,58.9-20s44-37.91,44-37.91A3.18,3.18,0,0,1,425,359.18Z" style="fill: rgb(55, 71, 79); transform-origin: 360.535px 387.499px;" id="elrzfd9r4dpr" class="animable"></path><path d="M424.46,359.34s-14.52,20.06-46.17,39c-26.26,15.7-54.9,19.37-54.9,19.37-12.28,1.12-27.32-11.83-27.32-11.83h0v17.32s15,13,27.32,11.84c0,0,28.64-3.68,54.9-19.37,31.65-18.92,46.17-39,46.17-39C427,372.38,425.92,356.77,424.46,359.34Z" style="fill: rgb(69, 90, 100); transform-origin: 361.028px 397.085px;" id="el6va8vmn1sfw" class="animable"></path><path d="M331.77,387.89c4.52-1.07,8.61,2,9.13,6.83a10.06,10.06,0,0,1-7.41,10.7,7.34,7.34,0,0,1-9.12-6.83C323.94,393.75,327.25,389,331.77,387.89Z" style="fill: rgb(255, 255, 255); transform-origin: 332.64px 396.659px;" id="elrcb71ava04" class="animable"></path><path d="M412.19,341.86c-2.75,2.74-4.51,8.61-3.94,13.12s3.15,5.93,5.75,3.17,4.36-8.63,3.94-13.12S414.93,339.12,412.19,341.86Z" style="fill: rgb(255, 255, 255); transform-origin: 413.072px 350.012px;" id="el2ytu4vv31e1" class="animable"></path><path d="M348.63,382a118.22,118.22,0,0,0,25-11.2c1.25-.73,2.25-.16,2.25,1.28v1.83a5,5,0,0,1-2.25,3.95,118.22,118.22,0,0,1-25,11.2,1.87,1.87,0,0,1-2.52-1.9v-1.83A3.67,3.67,0,0,1,348.63,382Z" style="fill: rgb(55, 71, 79); transform-origin: 360.992px 379.831px;" id="elsiohjtvvv4" class="animable"></path><path d="M403,352.26v1.83a6.37,6.37,0,0,1-2,4.31,211.79,211.79,0,0,1-18.73,14c-1.2.79-2.19.25-2.19-1.19V369.4a5.43,5.43,0,0,1,2.19-4,213.28,213.28,0,0,0,18.73-14C402.14,350.41,403,350.82,403,352.26Z" style="fill: rgb(55, 71, 79); transform-origin: 391.54px 361.811px;" id="el1nbo2xvkmqa" class="animable"></path><path d="M348.63,394.78a118.18,118.18,0,0,0,25-11.19c1.25-.73,2.25-.17,2.25,1.28v1.83a5.06,5.06,0,0,1-2.25,3.95,118.69,118.69,0,0,1-25,11.19,1.86,1.86,0,0,1-2.52-1.9v-1.83A3.7,3.7,0,0,1,348.63,394.78Z" style="fill: rgb(55, 71, 79); transform-origin: 360.991px 392.617px;" id="eld09slxlnrv" class="animable"></path><path d="M403,365.09v1.83a6.37,6.37,0,0,1-2,4.3,211.79,211.79,0,0,1-18.73,14c-1.2.8-2.19.26-2.19-1.19v-1.83a5.43,5.43,0,0,1,2.19-4,217.33,217.33,0,0,0,18.73-14C402.14,363.23,403,363.64,403,365.09Z" style="fill: rgb(55, 71, 79); transform-origin: 391.54px 374.632px;" id="elihsv6qrfjse" class="animable"></path><g id="elv8p5lsslh8b"><g style="opacity: 0.15; transform-origin: 333.885px 342.345px;" class="animable"><path d="M352.39,330.56a338.46,338.46,0,0,1-41.66,19,2,2,0,0,0-1,3.08l.07.1a4.18,4.18,0,0,0,4,1.67c6.14-1.34,22.74-5.66,43.37-16.75a2.32,2.32,0,0,0,.82-3.41l-1.87-2.78A2.92,2.92,0,0,0,352.39,330.56Z" id="elytch6o5r4rp" class="animable" style="transform-origin: 333.885px 342.345px;"></path></g></g><g id="el0hy1nxiei1i"><g style="opacity: 0.15; transform-origin: 380.002px 316.52px;" class="animable"><path d="M395.55,300.64a250.16,250.16,0,0,1-34.38,24.86,2.43,2.43,0,0,0-.77,3.5l1.89,2.8a2.82,2.82,0,0,0,3.72.83c18.7-11.27,28.7-21.19,33.28-26.59a3.69,3.69,0,0,0,.19-4.2l-.51-.76A2.23,2.23,0,0,0,395.55,300.64Z" id="elptl4uu4zm4" class="animable" style="transform-origin: 380.002px 316.52px;"></path></g></g><path d="M399.21,290.6s-16.7,16.79-44.22,32.81-56.85,25.53-56.85,25.53l-15.8-76.57,63.16-36.45,29.05-16.76,8.86-5.14Z" style="fill: rgb(69, 90, 100); transform-origin: 340.775px 281.48px;" id="el58z6y3sspuv" class="animable"></path><path d="M383.41,214l-8.86,5.13L345.5,235.92l-63.16,36.45,15.8,76.57h0l1.08-.36.22-.07,1.1-.38L301,348l.1,0,.1,0,.75-.27,1.17-.41,1.16-.42.76-.28,1-.37,3.38-1.28.76-.29c2.71-1.05,5.78-2.27,9.11-3.66l3.28-1.39.53-.23.6-.25c.69-.32,1.41-.62,2.13-.94l.62-.27,1.44-.65,1.65-.74c1.2-.54,2.42-1.11,3.65-1.69s2.47-1.17,3.72-1.77c.94-.46,1.88-.92,2.82-1.4l2.28-1.14.24-.12,2.33-1.21.19-.1,2.05-1.08,1.64-.88q2-1.07,3.89-2.16l2.59-1.48L357.3,322c.67-.39,1.33-.8,2-1.2.25-.15.51-.3.75-.46.75-.45,1.51-.92,2.24-1.38l.27-.17,1.07-.68c.47-.3.92-.6,1.39-.89l1.33-.88,1.32-.86c.55-.36,1.1-.72,1.63-1.09,1.09-.74,2.15-1.46,3.19-2.19l.21-.15,1.2-.83c1.58-1.12,3.1-2.22,4.54-3.28l1.08-.81,1-.78,1-.78c.68-.51,1.33-1,2-1.51l.08-.06.81-.63,1.85-1.48,1.17-.93c.24-.2.47-.4.7-.58s.46-.39.68-.56l.67-.55a.23.23,0,0,1,0-.05L391,298c1.87-1.58,3.44-3,4.68-4.1a5.07,5.07,0,0,1,.5-.45l.1-.1.52-.48,0,0c1.47-1.35,2.27-2.15,2.38-2.26h0ZM349.36,321a.13.13,0,0,1,0,.06,3.73,3.73,0,0,1-.09.46l0,.13c-.05.12-.09.25-.14.37a1.11,1.11,0,0,1-.07.16,2.39,2.39,0,0,1-.2.43,4.13,4.13,0,0,1-1.06,1.25,2.39,2.39,0,0,1-.46.29c-3.72,2-7.44,3.94-11.07,5.71l-1.91.94q-2.29,1.09-4.53,2.12l-2.08,1-3.56,1.58c-.59.27-1.17.52-1.74.76l-1.69.73c-2.24,1-4.38,1.84-6.4,2.66h0c-1.07.44-2.12.85-3.12,1.25l-1.47.57c-2.41.93-4.53,1.73-6.32,2.38a2.6,2.6,0,0,1-3.22-1.09,3.33,3.33,0,0,1-.33-.9l-9.72-48.42a4.61,4.61,0,0,1,2.06-4.6l41-23.67a2.21,2.21,0,0,1,3.43,1.49l9.71,40.54,2.94,12.28.05.2,0,.15a.47.47,0,0,1,0,.17.88.88,0,0,1,0,.17,2.11,2.11,0,0,1,0,.36A2.92,2.92,0,0,1,349.36,321Zm36.12-22.48h0l0,0-.72.61c-2.39,1.93-5.11,4-8.1,6.27-1,.76-2.07,1.52-3.16,2.3l-1.17.85c-1.59,1.14-3.24,2.28-5,3.45l-1.7,1.14c-.57.39-1.16.77-1.75,1.15s-1.19.79-1.79,1.17c-2.15,1.39-4.38,2.78-6.68,4.15a2.16,2.16,0,0,1-3.39-1.46l-.07-.3h0L349,305.61l-9.62-40.44a4.46,4.46,0,0,1,2-4.61l7.77-4.47,31.63-18.3,1.41-.8.12-.06a2.1,2.1,0,0,1,3.19,1.56l9.67,48a6.07,6.07,0,0,1-.93,4.23c-.11.17-.23.34-.35.49l0,0a4.68,4.68,0,0,1-.38.39l-.51.46c-.23.22-.47.43-.71.64l-2.16,1.88c-.77.67-1.62,1.39-2.52,2.14l-1.89,1.56-.23.18Z" style="fill: rgb(255, 193, 0); transform-origin: 340.76px 281.47px;" id="elrb0wdmuakub" class="animable"></path><g id="elxxt5dd3q8m"><g style="opacity: 0.3; transform-origin: 340.76px 281.47px;" class="animable"><path d="M383.41,214l-8.86,5.13L345.5,235.92l-63.16,36.45,15.8,76.57h0l1.08-.36.22-.07,1.1-.38L301,348l.1,0,.1,0,.75-.27,1.17-.41,1.16-.42.76-.28,1-.37,3.38-1.28.76-.29c2.71-1.05,5.78-2.27,9.11-3.66l3.28-1.39.53-.23.6-.25c.69-.32,1.41-.62,2.13-.94l.62-.27,1.44-.65,1.65-.74c1.2-.54,2.42-1.11,3.65-1.69s2.47-1.17,3.72-1.77c.94-.46,1.88-.92,2.82-1.4l2.28-1.14.24-.12,2.33-1.21.19-.1,2.05-1.08,1.64-.88q2-1.07,3.89-2.16l2.59-1.48L357.3,322c.67-.39,1.33-.8,2-1.2.25-.15.51-.3.75-.46.75-.45,1.51-.92,2.24-1.38l.27-.17,1.07-.68c.47-.3.92-.6,1.39-.89l1.33-.88,1.32-.86c.55-.36,1.1-.72,1.63-1.09,1.09-.74,2.15-1.46,3.19-2.19l.21-.15,1.2-.83c1.58-1.12,3.1-2.22,4.54-3.28l1.08-.81,1-.78,1-.78c.68-.51,1.33-1,2-1.51l.08-.06.81-.63,1.85-1.48,1.17-.93c.24-.2.47-.4.7-.58s.46-.39.68-.56l.67-.55a.23.23,0,0,1,0-.05L391,298c1.87-1.58,3.44-3,4.68-4.1a5.07,5.07,0,0,1,.5-.45l.1-.1.52-.48,0,0c1.47-1.35,2.27-2.15,2.38-2.26h0ZM349.36,321a.13.13,0,0,1,0,.06,3.73,3.73,0,0,1-.09.46l0,.13c-.05.12-.09.25-.14.37a1.11,1.11,0,0,1-.07.16,2.39,2.39,0,0,1-.2.43,4.13,4.13,0,0,1-1.06,1.25,2.39,2.39,0,0,1-.46.29c-3.72,2-7.44,3.94-11.07,5.71l-1.91.94q-2.29,1.09-4.53,2.12l-2.08,1-3.56,1.58c-.59.27-1.17.52-1.74.76l-1.69.73c-2.24,1-4.38,1.84-6.4,2.66h0c-1.07.44-2.12.85-3.12,1.25l-1.47.57c-2.41.93-4.53,1.73-6.32,2.38a2.6,2.6,0,0,1-3.22-1.09,3.33,3.33,0,0,1-.33-.9l-9.72-48.42a4.61,4.61,0,0,1,2.06-4.6l41-23.67a2.21,2.21,0,0,1,3.43,1.49l9.71,40.54,2.94,12.28.05.2,0,.15a.47.47,0,0,1,0,.17.88.88,0,0,1,0,.17,2.11,2.11,0,0,1,0,.36A2.92,2.92,0,0,1,349.36,321Zm36.12-22.48h0l0,0-.72.61c-2.39,1.93-5.11,4-8.1,6.27-1,.76-2.07,1.52-3.16,2.3l-1.17.85c-1.59,1.14-3.24,2.28-5,3.45l-1.7,1.14c-.57.39-1.16.77-1.75,1.15s-1.19.79-1.79,1.17c-2.15,1.39-4.38,2.78-6.68,4.15a2.16,2.16,0,0,1-3.39-1.46l-.07-.3h0L349,305.61l-9.62-40.44a4.46,4.46,0,0,1,2-4.61l7.77-4.47,31.63-18.3,1.41-.8.12-.06a2.1,2.1,0,0,1,3.19,1.56l9.67,48a6.07,6.07,0,0,1-.93,4.23c-.11.17-.23.34-.35.49l0,0a4.68,4.68,0,0,1-.38.39l-.51.46c-.23.22-.47.43-.71.64l-2.16,1.88c-.77.67-1.62,1.39-2.52,2.14l-1.89,1.56-.23.18Z" id="elc76b8fxqlm4" class="animable" style="transform-origin: 340.76px 281.47px;"></path></g></g><path d="M290.71,284.76l91.19-52.67a3.6,3.6,0,0,0,1.62-3.58l-1.66-8.23a1.63,1.63,0,0,0-2.57-1.16l-91.18,52.67a3.59,3.59,0,0,0-1.62,3.59l1.65,8.22A1.63,1.63,0,0,0,290.71,284.76Z" style="fill: rgb(69, 90, 100); transform-origin: 335.004px 251.94px;" id="eltx1emmllgy" class="animable"></path><path d="M349.3,319.64a4.26,4.26,0,0,1-2,4.51,336.21,336.21,0,0,1-43.9,19.66,2.61,2.61,0,0,1-3.55-2l-.64-3.19c8.86-6.44,30.38-21.81,46.9-31.35a2.12,2.12,0,0,1,.2-.12Z" style="fill: rgb(55, 71, 79); transform-origin: 324.298px 325.574px;" id="elaxc8inx3brl" class="animable"></path><path d="M394.28,290.75a4.23,4.23,0,0,1-.76.91,253.46,253.46,0,0,1-38.1,28,2.16,2.16,0,0,1-3.39-1.46l-3-12.57a287.65,287.65,0,0,1,40.07-18.25Z" style="fill: rgb(55, 71, 79); transform-origin: 371.655px 303.72px;" id="elnryz19v7zc" class="animable"></path><g id="elk0rgucxmiv"><path d="M387.92,280.36,376.87,274a10,10,0,0,1-4.53-7.85V242.7l8.47-4.9,1.4-.81a.56.56,0,0,1,.13-.07l8,41.69C390.75,280.58,389.65,281.36,387.92,280.36Z" style="fill: rgb(255, 255, 255); opacity: 0.1; transform-origin: 381.383px 258.858px;" class="animable"></path></g><g id="el60xbp3dgvnd"><path d="M364.29,247.35v16.24c0,1.74-1.21,2.44-2.72,1.57l-14.05-8.11,1.67-1Z" style="fill: rgb(255, 255, 255); opacity: 0.1; transform-origin: 355.905px 256.442px;" class="animable"></path></g><polygon points="383.41 214.01 282.34 272.36 247.6 246.83 207.83 223.87 308.9 165.53 348.67 188.49 383.41 214.01" style="fill: rgb(255, 193, 0); transform-origin: 295.62px 218.945px;" id="elkl4h5ycqs2" class="animable"></polygon><g id="freepik--percentage-box--inject-36" class="animable" style="transform-origin: 276.645px 331.283px;"><path d="M272,321.05l7.53-4.37a1.72,1.72,0,0,1,1.75-.17l1.78,1.06a1.72,1.72,0,0,1,.73,1.6v18.06a5.45,5.45,0,0,1-2.47,4.28l-7.53,4.37a1.73,1.73,0,0,1-1.75.18c-.44-.26-1.34-.81-1.78-1.06a1.74,1.74,0,0,1-.73-1.61V325.33A5.46,5.46,0,0,1,272,321.05Z" style="fill: rgb(250, 250, 250); transform-origin: 276.66px 331.282px;" id="elgka3re55npp" class="animable"></path><path d="M269.5,325.33V343.4a1.73,1.73,0,0,0,.73,1.6c.43.24,1.11.67,1.73,1a1.79,1.79,0,0,1-.67-1.57V326.39A5.05,5.05,0,0,1,272,324l-1.8-1.06A5.08,5.08,0,0,0,269.5,325.33Z" style="fill: rgb(224, 224, 224); transform-origin: 270.745px 334.47px;" id="elae8zl5ff047" class="animable"></path><path d="M281.29,341.51l-7.53,4.37c-1.36.79-2.47.15-2.47-1.42V326.4a5.49,5.49,0,0,1,2.47-4.29l7.53-4.37c1.36-.78,2.47-.15,2.47,1.43v18.06A5.45,5.45,0,0,1,281.29,341.51Z" style="fill: rgb(240, 240, 240); transform-origin: 277.525px 331.812px;" id="elnp1g11raff" class="animable"></path></g><path d="M288,344.51a5.61,5.61,0,0,1,2.53,4.4c0,1.62-1.13,2.28-2.53,1.47a5.59,5.59,0,0,1-2.53-4.4C285.47,344.36,286.6,343.7,288,344.51Z" style="fill: rgb(55, 71, 79); transform-origin: 288px 347.445px;" id="elsxlqdk7edj" class="animable"></path><path d="M279.1,353a1.91,1.91,0,0,1-.94-.26,1.84,1.84,0,0,1-.93-1.62V332.8a.63.63,0,1,1,1.25,0v18.34a.59.59,0,0,0,.31.54.6.6,0,0,0,.62,0l8.28-4.78a.62.62,0,0,1,.85.23.64.64,0,0,1-.23.86L280,352.76A1.91,1.91,0,0,1,279.1,353Z" style="fill: rgb(38, 50, 56); transform-origin: 282.923px 342.545px;" id="elt0tgrw2m43b" class="animable"></path></g></g></g><g id="freepik--Label--inject-36" class="animable animator-hidden" style="transform-origin: 258.843px 75.725px;"><g id="freepik--label--inject-36" class="animable" style="transform-origin: 258.843px 75.725px;"><path d="M181.26,135.24a1,1,0,0,1-1-.87c-4.65-33.45,19.77-53.86,44.17-61.81,25.46-8.29,43.44,2.75,44.2,3.22a1,1,0,0,1-1.07,1.71c-.18-.11-18-11-42.5-3-23.63,7.7-47.29,27.4-42.8,59.62a1,1,0,0,1-.86,1.14Z" style="fill: rgb(55, 71, 79); transform-origin: 224.395px 102.367px;" id="elaversovjq5v" class="animable"></path><g id="freepik--label--inject-36" class="animable" style="transform-origin: 296.795px 58.85px;"><path d="M336.11,16.2,271.93,53.25l-16.34,33,16.34,14.16,1.84,1.06L338,64.44V17.26Zm-66.42,64a8.67,8.67,0,0,1,3.92-6.8,3.56,3.56,0,0,1,1.69-.52,3.61,3.61,0,0,1,.39,1.72,8.7,8.7,0,0,1-3.92,6.8,3.71,3.71,0,0,1-1.71.52A3.62,3.62,0,0,1,269.69,80.18Z" style="fill: rgb(255, 193, 0); transform-origin: 296.795px 58.835px;" id="el8ajgbvsz4lh" class="animable"></path><path d="M273.77,54.32l-16.34,33,16.34,14.15L338,64.44V17.26Zm-.16,28.12c-2.17,1.26-3.92.24-3.92-2.26a8.67,8.67,0,0,1,3.92-6.8c2.16-1.25,3.92-.23,3.92,2.26A8.68,8.68,0,0,1,273.61,82.44Z" style="fill: rgb(255, 193, 0); transform-origin: 297.715px 59.365px;" id="elnb2lgjq56v" class="animable"></path><g id="el1yecm97unxc"><path d="M277.53,75.64a8.68,8.68,0,0,1-3.92,6.8c-1.57.91-2.92.63-3.55-.54h0a3.51,3.51,0,0,0,1.71-.53,8.66,8.66,0,0,0,3.92-6.79,3.5,3.5,0,0,0-.39-1.7,2,2,0,0,1,1.48.55A3,3,0,0,1,277.53,75.64Z" style="opacity: 0.3; transform-origin: 273.799px 77.9288px;" class="animable"></path></g><g id="el99jfiz69bva"><polygon points="337.95 17.26 336.11 16.2 271.93 53.25 273.77 54.32 337.95 17.26" style="fill: rgb(255, 255, 255); opacity: 0.6; transform-origin: 304.94px 35.26px;" class="animable"></polygon></g><g id="elbo2lutdldsb"><polygon points="273.77 54.32 257.43 87.35 255.59 86.28 271.93 53.25 273.77 54.32" style="opacity: 0.15; transform-origin: 264.68px 70.3px;" class="animable"></polygon></g><g id="eluum8dlpt7r"><polygon points="257.43 87.35 273.77 101.5 271.93 100.44 255.59 86.28 257.43 87.35" style="opacity: 0.3; transform-origin: 264.68px 93.89px;" class="animable"></polygon></g></g><g id="freepik--Text--inject-36" class="animable" style="transform-origin: 307.566px 58.121px;"><path d="M293.61,50.25a.26.26,0,0,1,.34,0,.64.64,0,0,1,.14.45v2.93a1.46,1.46,0,0,1-.14.6.88.88,0,0,1-.34.42l-5.37,3.1v3.78l5-2.89a.27.27,0,0,1,.34,0,.61.61,0,0,1,.14.44v2.93a1.54,1.54,0,0,1-.14.61.9.9,0,0,1-.34.41l-5,2.9v6a1.47,1.47,0,0,1-.14.61,1,1,0,0,1-.34.42l-2.36,1.36a.27.27,0,0,1-.34,0,.61.61,0,0,1-.14-.44V56a1.54,1.54,0,0,1,.14-.61,1,1,0,0,1,.34-.42Z" style="fill: rgb(250, 250, 250); transform-origin: 289.505px 62.2835px;" id="elvrrjcsgjuzc" class="animable"></path><path d="M301.79,45.53a6.28,6.28,0,0,1,2.12-.84,2.28,2.28,0,0,1,1.58.24,2.51,2.51,0,0,1,1,1.4,8.12,8.12,0,0,1,.35,2.6,12,12,0,0,1-.56,3.76,9.55,9.55,0,0,1-1.58,3L306.94,61a.65.65,0,0,1,.05.27,1.25,1.25,0,0,1-.11.5.75.75,0,0,1-.28.34l-2.44,1.41c-.24.14-.41.15-.51,0a1.23,1.23,0,0,1-.25-.36l-2-4.76-1.65,1v5.91a1.5,1.5,0,0,1-.14.61,1,1,0,0,1-.34.42l-2.35,1.35a.27.27,0,0,1-.35,0,.61.61,0,0,1-.14-.44V49.36a1.5,1.5,0,0,1,.14-.61.94.94,0,0,1,.35-.42Zm-2,9.54,2-1.17A3.85,3.85,0,0,0,303,52.74a3.4,3.4,0,0,0,.49-1.89c0-.78-.17-1.21-.49-1.32a1.63,1.63,0,0,0-1.25.28l-2,1.17Z" style="fill: rgb(250, 250, 250); transform-origin: 301.709px 56.1978px;" id="elfuvyjgzot9u" class="animable"></path><path d="M318.35,50.88a.26.26,0,0,1,.34,0,.57.57,0,0,1,.15.44v2.93a1.4,1.4,0,0,1-.15.61.84.84,0,0,1-.34.41l-8.5,4.91a.26.26,0,0,1-.34,0,.57.57,0,0,1-.15-.44V41.9a1.37,1.37,0,0,1,.15-.61.87.87,0,0,1,.34-.42l8.36-4.82a.26.26,0,0,1,.34,0,.57.57,0,0,1,.14.44v2.93a1.36,1.36,0,0,1-.14.61,1,1,0,0,1-.34.42l-5.53,3.19v3l5.13-3a.27.27,0,0,1,.35,0,.61.61,0,0,1,.14.44v2.93a1.47,1.47,0,0,1-.14.61.94.94,0,0,1-.35.42l-5.13,3v3.1Z" style="fill: rgb(250, 250, 250); transform-origin: 314.1px 48.115px;" id="elfs5pgw8abk" class="animable"></path><path d="M330.34,44a.26.26,0,0,1,.34,0,.57.57,0,0,1,.14.44v2.93a1.32,1.32,0,0,1-.14.6.88.88,0,0,1-.34.42l-8.51,4.91a.26.26,0,0,1-.34,0,.61.61,0,0,1-.14-.44V35a1.5,1.5,0,0,1,.14-.61,1,1,0,0,1,.34-.42l8.37-4.83a.27.27,0,0,1,.34,0,.61.61,0,0,1,.14.44v2.93a1.54,1.54,0,0,1-.14.61.9.9,0,0,1-.34.41l-5.53,3.2v3l5.13-3a.26.26,0,0,1,.34,0,.57.57,0,0,1,.15.44v2.93a1.34,1.34,0,0,1-.15.61.93.93,0,0,1-.34.42l-5.13,3v3.09Z" style="fill: rgb(250, 250, 250); transform-origin: 326.086px 41.2215px;" id="eln15p4qp8hfc" class="animable"></path><path d="M286.89,76.26a2.5,2.5,0,0,1,1.12-.37,1.54,1.54,0,0,1,.87.19,1.46,1.46,0,0,1,.58.6,1.88,1.88,0,0,1,.22.85.65.65,0,0,1-.06.26.35.35,0,0,1-.14.17l-1.24.72a.34.34,0,0,1-.21.06.27.27,0,0,1-.17-.08.36.36,0,0,1-.09-.09.52.52,0,0,0-.46-.13,1.06,1.06,0,0,0-.42.16,2.54,2.54,0,0,0-.34.23,2.76,2.76,0,0,0-.3.29,1.33,1.33,0,0,0-.2.35.91.91,0,0,0-.09.41.33.33,0,0,0,.4.4,2.26,2.26,0,0,0,.56-.08c.24-.06.53-.13.87-.23a2.84,2.84,0,0,1,.91-.11,1,1,0,0,1,.65.24,1.28,1.28,0,0,1,.39.65,3.87,3.87,0,0,1,.13,1.12,4.77,4.77,0,0,1-.22,1.45,6.29,6.29,0,0,1-.61,1.35,6.12,6.12,0,0,1-2.1,2.07,2.84,2.84,0,0,1-1.17.41,1.6,1.6,0,0,1-.92-.16,1.56,1.56,0,0,1-.6-.62,2.14,2.14,0,0,1-.23-1,.65.65,0,0,1,.06-.26.35.35,0,0,1,.14-.17l1.24-.72a.46.46,0,0,1,.21-.07.34.34,0,0,1,.15.07.66.66,0,0,1,.12.12.53.53,0,0,0,.2.15.61.61,0,0,0,.32.06,1.2,1.2,0,0,0,.48-.18,3.53,3.53,0,0,0,.84-.65,1.17,1.17,0,0,0,.34-.8.32.32,0,0,0-.13-.29.63.63,0,0,0-.37-.06,4.44,4.44,0,0,0-.63.12c-.25.08-.56.15-.9.24a1.4,1.4,0,0,1-1.43-.25,2.61,2.61,0,0,1-.45-1.75,4.65,4.65,0,0,1,.19-1.3,6.18,6.18,0,0,1,.53-1.32,6.54,6.54,0,0,1,.85-1.18A4.77,4.77,0,0,1,286.89,76.26Z" style="fill: rgb(250, 250, 250); transform-origin: 286.946px 81.5238px;" id="els37oqh2d1b" class="animable"></path><path d="M296.41,70.92a.13.13,0,0,1,.18,0,.3.3,0,0,1,.07.23v9.43a.77.77,0,0,1-.07.32.59.59,0,0,1-.18.22l-1.25.71a.14.14,0,0,1-.18,0,.32.32,0,0,1-.07-.23V78l-2.1,1.22v3.57a.72.72,0,0,1-.08.32.46.46,0,0,1-.18.22l-1.24.72a.14.14,0,0,1-.18,0,.3.3,0,0,1-.08-.24V74.4a.76.76,0,0,1,.08-.32.46.46,0,0,1,.18-.22l1.24-.72a.14.14,0,0,1,.18,0,.29.29,0,0,1,.08.23V76.9l2.1-1.21V72.17a.77.77,0,0,1,.07-.32.51.51,0,0,1,.18-.22Z" style="fill: rgb(250, 250, 250); transform-origin: 293.855px 77.4833px;" id="elxsdcbhqyrr" class="animable"></path><path d="M298.48,79.93a.14.14,0,0,1-.18,0,.33.33,0,0,1-.08-.24V70.26a.76.76,0,0,1,.08-.32.46.46,0,0,1,.18-.22l1.24-.72a.15.15,0,0,1,.18,0,.33.33,0,0,1,.08.24v9.42a.72.72,0,0,1-.08.32.46.46,0,0,1-.18.22Z" style="fill: rgb(250, 250, 250); transform-origin: 299.1px 74.4664px;" id="el3s561g1135n" class="animable"></path><path d="M304.51,66.24a3.19,3.19,0,0,1,1.09-.42,1.13,1.13,0,0,1,.82.17,1.47,1.47,0,0,1,.53.77,4.35,4.35,0,0,1,.18,1.38,6.91,6.91,0,0,1-.18,1.61,5.66,5.66,0,0,1-.53,1.36,5.13,5.13,0,0,1-.82,1.12,5.25,5.25,0,0,1-1.09.85l-1.22.7v3a.77.77,0,0,1-.07.32.51.51,0,0,1-.18.22L301.8,78a.13.13,0,0,1-.18,0,.3.3,0,0,1-.08-.23V68.34a.79.79,0,0,1,.08-.32.51.51,0,0,1,.18-.22Zm-1.22,5.27,1.17-.68a1.85,1.85,0,0,0,.92-1.68c0-.41-.09-.65-.26-.73a.7.7,0,0,0-.66.11l-1.17.67Z" style="fill: rgb(250, 250, 250); transform-origin: 304.336px 71.9194px;" id="elzu5cv2n5z3q" class="animable"></path><path d="M311.24,62.35a3.35,3.35,0,0,1,1.09-.42,1.16,1.16,0,0,1,.83.17,1.46,1.46,0,0,1,.52.77,4.06,4.06,0,0,1,.19,1.38,6.4,6.4,0,0,1-.19,1.61,5.89,5.89,0,0,1-.52,1.37,5.36,5.36,0,0,1-.83,1.11,4.77,4.77,0,0,1-1.09.85l-1.21.7v3a.79.79,0,0,1-.08.32.46.46,0,0,1-.18.22l-1.24.72a.14.14,0,0,1-.18,0,.3.3,0,0,1-.07-.23V64.46a.78.78,0,0,1,.07-.33.51.51,0,0,1,.18-.22ZM310,67.62l1.17-.68a1.86,1.86,0,0,0,.91-1.68c0-.41-.08-.65-.26-.73a.68.68,0,0,0-.65.11l-1.17.67Z" style="fill: rgb(250, 250, 250); transform-origin: 311.075px 68.0478px;" id="el1hlhj3jg3br" class="animable"></path><path d="M315.27,70.24a.14.14,0,0,1-.18,0A.29.29,0,0,1,315,70V60.57a.72.72,0,0,1,.08-.32.41.41,0,0,1,.18-.22l1.24-.72a.14.14,0,0,1,.18,0,.32.32,0,0,1,.08.23V69a.76.76,0,0,1-.08.32.46.46,0,0,1-.18.22Z" style="fill: rgb(250, 250, 250); transform-origin: 315.88px 64.775px;" id="elmv2z6vttli8" class="animable"></path><path d="M322.64,66c-.11.06-.19.07-.26,0a.39.39,0,0,1-.13-.13l-2.17-3.74v4.93a.71.71,0,0,1-.07.32.46.46,0,0,1-.18.22l-1.24.72a.14.14,0,0,1-.18,0,.28.28,0,0,1-.08-.23V58.65a.63.63,0,0,1,.08-.32.46.46,0,0,1,.18-.22l1-.57c.11-.06.2-.07.26,0a.39.39,0,0,1,.13.13l2.17,3.74V56.46a.71.71,0,0,1,.07-.32.6.6,0,0,1,.18-.22l1.25-.72a.15.15,0,0,1,.18,0,.33.33,0,0,1,.07.24v9.42a.74.74,0,0,1-.07.32.46.46,0,0,1-.18.22Z" style="fill: rgb(250, 250, 250); transform-origin: 321.115px 61.7614px;" id="ela0l1nw4319" class="animable"></path><path d="M328.16,54.77a2,2,0,0,0-.54.45,2.63,2.63,0,0,0-.35.58,2.73,2.73,0,0,0-.2.65,5.62,5.62,0,0,0-.1.7c0,.13,0,.31,0,.54s0,.46,0,.69,0,.47,0,.7,0,.4,0,.52a2.61,2.61,0,0,0,.09.59,1,1,0,0,0,.21.42.47.47,0,0,0,.36.16,1,1,0,0,0,.53-.17,2.21,2.21,0,0,0,.47-.35,2.44,2.44,0,0,0,.38-.5,2.84,2.84,0,0,0,.25-.64,2.87,2.87,0,0,0,.1-.8l-.8.46a.15.15,0,0,1-.18,0,.33.33,0,0,1-.07-.24V57a.78.78,0,0,1,.07-.33.51.51,0,0,1,.18-.22l2.3-1.32a.14.14,0,0,1,.18,0,.33.33,0,0,1,.07.24v1.86a6.75,6.75,0,0,1-.23,1.81,7.54,7.54,0,0,1-.62,1.63,7.17,7.17,0,0,1-.93,1.33,4.93,4.93,0,0,1-1.17.95,2.5,2.5,0,0,1-1.21.39A1.42,1.42,0,0,1,326,63a2.06,2.06,0,0,1-.58-.92,4.87,4.87,0,0,1-.23-1.39c0-.4,0-.82,0-1.28s0-.9,0-1.32a7.45,7.45,0,0,1,.23-1.66,7.19,7.19,0,0,1,.58-1.59,6.54,6.54,0,0,1,.91-1.39,5.14,5.14,0,0,1,1.22-1,2.7,2.7,0,0,1,1.2-.39,1.63,1.63,0,0,1,.9.24,1.76,1.76,0,0,1,.58.68,2.14,2.14,0,0,1,.22.91.5.5,0,0,1-.05.26.47.47,0,0,1-.15.18L329.6,55c-.1.05-.17.05-.23,0l-.15-.17a.82.82,0,0,0-.36-.27A.89.89,0,0,0,328.16,54.77Z" style="fill: rgb(250, 250, 250); transform-origin: 328.151px 57.6998px;" id="eldmyorccgww" class="animable"></path></g><path d="M264.86,94a11.57,11.57,0,0,1-2.84-.36,1,1,0,0,1,.48-2A8.15,8.15,0,0,0,272.28,87c1-2.44,1.09-6-2.19-8.11a1,1,0,0,1,1.09-1.7c4.06,2.59,4.41,7.19,3,10.6A10,10,0,0,1,264.86,94Z" style="fill: rgb(55, 71, 79); transform-origin: 268.082px 85.5158px;" id="elt5krs0ixz4" class="animable"></path></g></g><g id="freepik--Character--inject-36" class="animable" style="transform-origin: 124.64px 309.802px;"><g id="freepik--character--inject-36" class="animable" style="transform-origin: 124.64px 309.802px;"><g id="freepik--Bottom--inject-36" class="animable" style="transform-origin: 117.157px 338.145px;"><path d="M97.58,371.21a5.58,5.58,0,0,0-.48,2.9,13.33,13.33,0,0,1,.48,3.95c-.16,2-.59,2.61-.74,4a5.73,5.73,0,0,0,.85,4c.86,1.29,2.78,2.32,6.31,2.06,2.86-.21,4.07-1.81,4.07-3.5Z" style="fill: rgb(38, 50, 56); transform-origin: 102.42px 379.685px;" id="elvtuzzy9d08a" class="animable"></path><path d="M99,369.52c1.8,1,4.74-.17,6.93-1.34l2.3-13.6-9.95-2.21Z" style="fill: rgb(255, 168, 167); transform-origin: 103.255px 361.134px;" id="el6rsxet3ah7w" class="animable"></path><path d="M98.26,367.1a6.61,6.61,0,0,0-.13,1.12c-.08.66-.26,1.3-.39,2,0,.17-.07.35-.1.52a20.85,20.85,0,0,0,.13,4,22.08,22.08,0,0,1-.65,4.7c-.54,2.81-.53,4.56,2,6.39a6.56,6.56,0,0,0,4.32,1.05c1.23,0,2.93-.33,3.55-1a3,3,0,0,0,1-1.7c0-3-1.21-6.35-1.53-9.29a14.83,14.83,0,0,1-.15-2.39c.07-1,.37-2,.44-3a1.66,1.66,0,0,0-.17-1.08,1.78,1.78,0,0,0-1.34-.54c-1.3-.12-2.6-.2-3.91-.25a1.16,1.16,0,0,0-.88.22c-.24.23-.23.62-.29.95s-.29.72-.62.67a.55.55,0,0,1-.41-.47c0-.22-.2-1.93-.2-2.15C98.87,366.87,98.41,366.81,98.26,367.1Z" style="fill: rgb(55, 71, 79); transform-origin: 102.413px 376.884px;" id="ellfwg6eo62g" class="animable"></path><path d="M108.22,383.67a3.58,3.58,0,0,0-.48-1.78c-1.45-2.6-8.73-2.42-10.91.31a4,4,0,0,0,1.84,3.71c1.26.94,3.25,1.07,4.88,1a6.32,6.32,0,0,0,3.56-1.1A2.45,2.45,0,0,0,108.22,383.67Z" style="fill: rgb(69, 90, 100); transform-origin: 102.519px 383.484px;" id="elp8ta25qatve" class="animable"></path><path d="M117.72,369.92c1.52,3.29,3.91,2,7-.14l1.51-19.69-9.54,2.58Z" style="fill: rgb(255, 168, 167); transform-origin: 121.46px 361.005px;" id="elstuq8npj4e" class="animable"></path><path d="M137.3,377.43a2.19,2.19,0,0,1-.09,1.62c-.23.47-2.71,1.87-6.05,1.65a14.07,14.07,0,0,1-6.93-2.42,8,8,0,0,0-4.26-1.1c-1.66-.09-3.83-.92-4.2-1.7a3.69,3.69,0,0,1,.06-2.11Z" style="fill: rgb(38, 50, 56); transform-origin: 126.529px 377.047px;" id="elf71gu801hed" class="animable"></path><path d="M125.59,367a7,7,0,0,1,.32.75,5.88,5.88,0,0,0,1.75,2.37,18.89,18.89,0,0,0,3.62,2.15c.8.4,1.66.54,2.48.86a14.65,14.65,0,0,1,2.67,1.3,2.42,2.42,0,0,1,0,4,11.79,11.79,0,0,1-8.25.57c-1.94-.55-4.09-2.62-6.64-2.82-1.62-.13-4.68-.58-5.72-1.81-.33-1.79.13-2.28.55-3.77a12.5,12.5,0,0,0,.41-2.58c0-.46-.23-1.79.74-1.91l0,1s.17.34,1.17.56c.32.07.56.5.72.9s.25.69.57.7a.61.61,0,0,0,.52-.37,4.79,4.79,0,0,0,.21-.64,2.57,2.57,0,0,1,1.58-1.44,7.79,7.79,0,0,1,1.79-.3c.47-.05.85-.23,1.25.17A1.5,1.5,0,0,1,125.59,367Z" style="fill: rgb(55, 71, 79); transform-origin: 126.597px 372.8px;" id="elzqxz8iuzhep" class="animable"></path><path d="M116.59,369.54c-.07.37-.14.73-.24,1.09-.42,1.49-.88,2-.55,3.77.8.94,2.79,1.43,4.4,1.66C120.75,373,118.84,370.71,116.59,369.54Z" style="fill: rgb(69, 90, 100); transform-origin: 117.991px 372.8px;" id="el5bo746q5ux6" class="animable"></path><path d="M99.71,291.37c-.42,12.75-.24,17.86-.19,41.31a40.5,40.5,0,0,0-1.72,11.08c-.16,5.87.46,18,.46,18s4.86,3,9,.62c0,0,3.3-17.85,4.57-26,1.11-7.19,2.25-17.71,2.25-17.71l1.59,14.95a59.33,59.33,0,0,0-.27,11.36c.27,3.84,1.32,17.38,1.32,17.38s4.4,3.07,9,.61c0,0,2.16-26.94,2.23-30.43.07-4-1.48-44.41-1.48-44.41Z" style="fill: rgb(69, 90, 100); transform-origin: 112.863px 326.027px;" id="eloermt8ivjbk" class="animable"></path><path d="M114.05,318.64l2.41-13.92s5.23-.46,8.13-3.38c0,0-.52,2.87-7.1,4.58l-2.41,14,.56,13.63Z" style="fill: rgb(38, 50, 56); transform-origin: 119.32px 317.445px;" id="el7dagj2in5e9" class="animable"></path><path d="M136.49,374.35a13.48,13.48,0,0,0-2.36-1,5.72,5.72,0,0,0-5.29,5.88,11,11,0,0,0,7.61-.65A2.62,2.62,0,0,0,136.49,374.35Z" style="fill: rgb(69, 90, 100); transform-origin: 133.191px 376.488px;" id="eltpou960n8b" class="animable"></path></g><g id="freepik--Top--inject-36" class="animable" style="transform-origin: 124.64px 270.802px;"><g id="freepik--Arm--inject-36" class="animable" style="transform-origin: 139.055px 270.509px;"><path d="M118.12,258.7c2.25-.06,6.45-.11,9.37,3.67,2.06,2.66,7.69,9.07,10.86,13.28,2.25-2.23,7.69-7.63,8.6-9.23a25.7,25.7,0,0,0,2.1-4.72,15.78,15.78,0,0,0,.77-2.95A16,16,0,0,0,150,255c0-1.12,1.66-.51,2.26,1.29a9.94,9.94,0,0,1,.41,3.07l2.73-1.25c1-.43,4.13-1.45,4.39.31a4.26,4.26,0,0,0,.08,1.19,3,3,0,0,0,.33.46,2,2,0,0,1,.2,2,1.55,1.55,0,0,0-.19.92,2.64,2.64,0,0,1,0,1,4.3,4.3,0,0,1-.41.72,3,3,0,0,0-.3,1,3.61,3.61,0,0,1-.26,1c-.36.77-1.3.93-2,1.17a34.55,34.55,0,0,0-3.28,1.2c-1.76,1.11-6.63,9.45-11.49,14.76-1.67,1.82-3.15,2.95-4.69,2.71h0c-1.25-.05-2.76-1.22-4.21-2.54-4.63-4.18-12.11-12-12.11-12C118.34,268.22,117.7,261.27,118.12,258.7Z" style="fill: rgb(255, 168, 167); transform-origin: 139.292px 270.509px;" id="el41kslawvpd3" class="animable"></path><path d="M118.12,258.7a11.13,11.13,0,0,1,6.34,1c2,1,2.4,1.63,4.29,3.85s4.52,5.56,4.52,5.56-1.49,6.32-7.64,7.89l-8.1-9.41Z" style="fill: rgb(69, 90, 100); transform-origin: 125.4px 267.799px;" id="elgcw5cjiw7tv" class="animable"></path><path d="M153.89,259.59c-1,.31-1.23,1-1.19,2.36,0,.83-.21,2.37-1.11,3a2.16,2.16,0,0,0,1.17-.52c.43-.44.54-.49.78-.24a1.66,1.66,0,0,0,.63.35,1.08,1.08,0,0,0-.09,1.29c.44.71,2.38.71,4-.13,0,0-2.58.83-3.19,0s.76-1.86,1.78-2.15c0,0-2.5.62-2.89-.19s.64-1.45,2.11-1.84c0,0-2.06.39-2.42-.3A1.27,1.27,0,0,1,153.89,259.59Z" style="fill: rgb(242, 143, 143); transform-origin: 154.835px 262.969px;" id="elwhm7rw21oa" class="animable"></path></g><path d="M126,268.44c-.56-4.09-1.1-9.59-7.44-9.84l-8.24-.39c-2,.52-11,3.13-11,3.13v13s.3,5.43.67,12.28c0,0-.74,8-.67,11.11,5.86,3.71,21.41,2.65,27.59-1.08C127.2,291,126.59,272.49,126,268.44Z" style="fill: rgb(255, 193, 0); transform-origin: 113.15px 279.123px;" id="elquxi84lck9p" class="animable"></path><path d="M115.89,245.22,103,244.55c-2.45,1.94-7,6-7,7.11h0l0,.77h0a.16.16,0,0,0,0,.09c.47.86,2.13,1.36,4.69,1.35,3,0,7.75-.39,9-1.48,1.83-1.65,6.21-6.44,6.21-6.44l-.65,0Z" style="fill: rgb(255, 193, 0); transform-origin: 105.947px 249.21px;" id="el78e0p9o4rji" class="animable"></path><g id="el1o6thhd2yvah"><path d="M115.89,245.22,103,244.55c-2.45,1.94-7,6-7,7.11h0l0,.77h0a.16.16,0,0,0,0,.09c.47.86,2.13,1.36,4.69,1.35,3,0,7.75-.39,9-1.48,1.83-1.65,6.21-6.44,6.21-6.44l-.65,0Z" style="opacity: 0.2; transform-origin: 105.947px 249.21px;" class="animable"></path></g><path d="M103,245.27c-2.57,2-7.43,6.39-6.95,7.25s2.13,1.36,4.69,1.35c3,0,7.75-.39,9-1.48,1.83-1.65,6.21-6.44,6.21-6.44Z" style="fill: rgb(255, 193, 0); transform-origin: 105.983px 249.57px;" id="el6a6g87u56j9" class="animable"></path><g id="elilhvjskzao"><path d="M103,245.27c-2.57,2-7.43,6.39-6.95,7.25s2.13,1.36,4.69,1.35c3,0,7.75-.39,9-1.48,1.83-1.65,6.21-6.44,6.21-6.44Z" style="opacity: 0.4; transform-origin: 105.983px 249.57px;" class="animable"></path></g><path d="M103,245.27c0,.38,1.3,1.13,1.3,1.13l-.42-2.26Z" style="fill: rgb(255, 193, 0); transform-origin: 103.65px 245.27px;" id="elbw8pkj4jru" class="animable"></path><g id="elg9ggi8rw6ft"><path d="M103,245.27c0,.38,1.3,1.13,1.3,1.13l-.42-2.26Z" style="opacity: 0.3; transform-origin: 103.65px 245.27px;" class="animable"></path></g><path d="M123.35,236.81a8.44,8.44,0,0,0-2.6-2.91c-1.91-1.32-4.38-1.53-6.7-1.44a16.52,16.52,0,0,0-4.37.67,8.81,8.81,0,0,0-5.79,5.65,11.89,11.89,0,0,0,1.21,10c.81,1.27,1.33,2.65,2,4,.57,1.11,1,2,1,2l-.19-3.51,3.34-.29a13,13,0,0,1,2.91-.16,3.85,3.85,0,0,0,2.54-.8,39.82,39.82,0,0,0,4.51-3.34,12.64,12.64,0,0,0,2.43-2.58,5.09,5.09,0,0,0,.42-.71,4.22,4.22,0,0,0,.44-1.34,7.75,7.75,0,0,0,.09-2,9.33,9.33,0,0,0-.59-2A12.73,12.73,0,0,0,123.35,236.81Z" style="fill: rgb(38, 50, 56); transform-origin: 113.958px 243.611px;" id="el2n54pq90u09" class="animable"></path><path d="M114.68,239.71a17.57,17.57,0,0,1-2.25-.45l-.21,0a5.05,5.05,0,0,1-3.71,3.36,12.86,12.86,0,0,1,.1,4.24,2.63,2.63,0,0,1-.32.86,1.06,1.06,0,0,1-.75.47c-.41,0-.58-.22-.71-.54a9,9,0,0,0-.62-1.19,2.1,2.1,0,0,0-.36-.46,2,2,0,0,0-3.33.68,4.24,4.24,0,0,0,2.23,5.15c2.57.71,3.12-1,3.12-1l.5,9.15c1.39,1.45,6.67,3.45,8.19,5.17.68-1.17,2.63-4.05.06-5.68l-.1-2.79a16.12,16.12,0,0,0,3.43.06c1.86-.35,2.78-1.92,3.28-4,.8-3.28.7-9.52.45-12a19.36,19.36,0,0,0-.39-2.63c.08.25-1.76,1-2,1a11.23,11.23,0,0,1-2.56.54,23.7,23.7,0,0,1-3,.11A9.28,9.28,0,0,1,114.68,239.71Z" style="fill: rgb(255, 168, 167); transform-origin: 113.086px 251.63px;" id="elkry9ai6ono" class="animable"></path><path d="M116.52,256.6a32.57,32.57,0,0,1-5.68-1.43,4.86,4.86,0,0,1-2.08-1.93,6.66,6.66,0,0,0,1.22,2.31c1.11,1.33,6.57,1.93,6.57,1.93Z" style="fill: rgb(242, 143, 143); transform-origin: 112.655px 255.36px;" id="elwffpk0q4t5" class="animable"></path><path d="M114.73,245.75a.78.78,0,1,1-.8-.78A.78.78,0,0,1,114.73,245.75Z" style="fill: rgb(38, 50, 56); transform-origin: 113.95px 245.75px;" id="elq64fw1y3pr" class="animable"></path><path d="M113.68,241.92l-2,.59a1.06,1.06,0,0,1,.7-1.3A1,1,0,0,1,113.68,241.92Z" style="fill: rgb(38, 50, 56); transform-origin: 112.66px 241.832px;" id="elrh6ju91aag" class="animable"></path><path d="M115,251.19l2.88,1a1.5,1.5,0,0,1-1.9,1A1.58,1.58,0,0,1,115,251.19Z" style="fill: rgb(177, 102, 104); transform-origin: 116.398px 252.226px;" id="el4x3g4y4hrcn" class="animable"></path><path d="M115.34,251.79a1.15,1.15,0,0,0-.37.06,1.56,1.56,0,0,0,1,1.31,1.41,1.41,0,0,0,.64.07.45.45,0,0,0,0-.11A1.32,1.32,0,0,0,115.34,251.79Z" style="fill: rgb(242, 143, 143); transform-origin: 115.792px 252.515px;" id="el6wsmu1c7sxc" class="animable"></path><path d="M123,242.35l-1.87-.71a1,1,0,0,1,1.26-.57A1,1,0,0,1,123,242.35Z" style="fill: rgb(38, 50, 56); transform-origin: 122.094px 241.682px;" id="el1o4dasvkep3" class="animable"></path><path d="M110.86,243.09l-6.55,2.25a2.35,2.35,0,0,1,1.88.95l4.64-1.76Z" style="fill: rgb(55, 71, 79); transform-origin: 107.585px 244.69px;" id="el3hmtgw2ia6x" class="animable"></path><path d="M121.88,245.62a.78.78,0,1,1-.81-.79A.8.8,0,0,1,121.88,245.62Z" style="fill: rgb(38, 50, 56); transform-origin: 121.1px 245.61px;" id="el595rcckz8hd" class="animable"></path><path d="M125.4,242.77l-.42-.05a12.77,12.77,0,0,0-4.29.22c-1.37.45-1.86.93-2.62.95s-1.31-.45-2.76-.85a14.16,14.16,0,0,0-4.57,0c-.16,0-.32,0-.46.06a.76.76,0,0,0-.53.78,1.62,1.62,0,0,0,.43.89,1.28,1.28,0,0,1,.14.36,15.08,15.08,0,0,0,.51,2.47,3.14,3.14,0,0,0,.57.89,2.48,2.48,0,0,0,.3.25l.17.12a2.69,2.69,0,0,0,.51.24l.08,0,.14,0,.14,0a3.06,3.06,0,0,0,.45.06h.44a3.24,3.24,0,0,0,3.16-1.91c.49-.95.39-2.27,1.26-2.29h.16c.63.14.53,1.36.92,2.23a3.54,3.54,0,0,0,.6.95.93.93,0,0,0,.14.14l.08.07a.27.27,0,0,0,.08.07l.07.05.08.06.06,0,.05,0a2.93,2.93,0,0,0,.74.29h.07a3.67,3.67,0,0,0,.91.08,2.76,2.76,0,0,0,2.69-1.77,16,16,0,0,0,.58-2.5.79.79,0,0,1,.17-.33,1.75,1.75,0,0,0,.41-.92C125.89,243.15,125.64,242.79,125.4,242.77Zm-9.08,3.68a2.94,2.94,0,0,1-.67,1.32h0a2.7,2.7,0,0,1-2.06.79,2.2,2.2,0,0,1-2-.92l-.06-.1a790082301798.33,790082301798.33,0,0,0-.1-.18.25.25,0,0,1,0-.07l0-.07a.17.17,0,0,1,0-.05.42.42,0,0,1,0-.1h0c0-.09-.07-.18-.1-.27h0s0-.11,0-.16a1.68,1.68,0,0,1-.06-.27v-.1c-.14-.65-.28-1.94,0-2.24a3.76,3.76,0,0,1,2.59-.5h.15c.21,0,.42.06.63.1l.25.06a5,5,0,0,1,.62.19l.19.08.2.1,0,0,.08,0a1.34,1.34,0,0,1,.41.34A3,3,0,0,1,116.32,246.45Zm8.17-.43a3,3,0,0,1-1.36,2.13,2.66,2.66,0,0,1-1,.25,2.18,2.18,0,0,1-2.07-1h0l0-.06,0-.07,0,0a.54.54,0,0,0-.05-.11l0-.12,0-.06v0s0,0,0-.05,0,0,0,0a2.59,2.59,0,0,1-.12-.48,3.17,3.17,0,0,1,.08-2,4,4,0,0,1,2.3-1l.65-.06h.56l.18,0,.32.05.07,0h0l.06,0,.07,0,.09,0,.16.06h0a1.05,1.05,0,0,1,.34.22C124.83,244.06,124.64,245.36,124.49,246Z" style="fill: rgb(38, 50, 56); transform-origin: 117.805px 245.899px;" id="elvte51098g1p" class="animable"></path><path d="M117.81,245.08l.15,5.45,3-.88L118.16,245A.78.78,0,0,0,117.81,245.08Z" style="fill: rgb(242, 143, 143); transform-origin: 119.385px 247.765px;" id="eljeyxd4qjgq" class="animable"></path><path d="M102.37,242.15a11,11,0,0,0,.62,3.19,4,4,0,0,1,.76-.92,19.18,19.18,0,0,1,5.74-3.44h0a22.54,22.54,0,0,1,15.09-.89,10.41,10.41,0,0,0-.66-2.72c-1.75-4.28-5.15-6.47-10.49-5.81C107.17,232.35,102.07,235.94,102.37,242.15Z" style="fill: rgb(255, 193, 0); transform-origin: 113.469px 238.392px;" id="elkcqwgzodd8o" class="animable"></path><path d="M113.77,238.08a16.44,16.44,0,0,1,6.25-.57A6.56,6.56,0,0,0,121.3,236c.49-.81.3-1.83-.19-2s-.5.43-2.33,1.38a3.08,3.08,0,0,0,.12-1.87c-.32-.74-.93.62-2.28,1.52S113.91,236.41,113.77,238.08Z" style="fill: rgb(38, 50, 56); transform-origin: 117.678px 235.689px;" id="elw490x8x57p" class="animable"></path><path d="M116.56,265.07c-1-.63-3.22-1.72-4.36-.51s-1.74,1.56-2.49,1.34-3.12-2.66-4-4c-1-1.53-.76-2.15-.76-2.15l1.87-2.46c.52-.69.69-.77,1.35-.82l.09,1.82a3.45,3.45,0,0,0,1.41,2.24C111.53,261.8,115.19,262.14,116.56,265.07Z" style="fill: rgb(69, 90, 100); transform-origin: 110.742px 261.216px;" id="elc3w8zl1jp9f" class="animable"></path><path d="M116.56,265.07c.61-.57,2-2,3-1.69s1.46.89,1.48.35a10.84,10.84,0,0,0-1.65-3.63,6.27,6.27,0,0,0-2.79-2.39l.06,1.68s1.2,1.52,1.06,2.43S116.68,264.18,116.56,265.07Z" style="fill: rgb(69, 90, 100); transform-origin: 118.8px 261.39px;" id="el4yacirmi70c" class="animable"></path><g id="freepik--arm--inject-36" class="animable" style="transform-origin: 115.67px 285.62px;"><polygon points="142.64 280.67 120.93 284.39 112.35 310.16 133.03 306.08 142.64 280.67" style="fill: rgb(38, 50, 56); transform-origin: 127.495px 295.415px;" id="eljcdipj8g23j" class="animable"></polygon><g id="elyli92craau"><path d="M124.16,299.79a5,5,0,0,1-3.59,3.52,10.9,10.9,0,0,1-5.78-.48l.72-2.15Z" style="opacity: 0.15; transform-origin: 119.475px 301.644px;" class="animable"></path></g><g id="elct60q9tn17d"><path d="M136.09,283.93l.25-.79c.13-.44-1.11-.57-2.78-.29l-3.2.54c-1.67.28-3.13.86-3.27,1.3l-.24.79Z" style="opacity: 0.15; transform-origin: 131.6px 284.091px;" class="animable"></path></g><path d="M137.83,281c.08-.27-.41-.39-1.11-.26l-1.27.23s.52-1.72-2.28-1.35a4.31,4.31,0,0,0-3.57,2.31l-1.36.26a2.45,2.45,0,0,0-1.55.74l-.2.49,11.18-1.91S137.74,281.28,137.83,281Z" style="fill: rgb(255, 193, 0); transform-origin: 132.164px 281.494px;" id="elg9u03pup4y" class="animable"></path><g id="elogjof9p7nys"><path d="M137.83,281c.08-.27-.41-.39-1.11-.26l-1.27.23s.52-1.72-2.28-1.35a4.31,4.31,0,0,0-3.57,2.31l-1.36.26a2.45,2.45,0,0,0-1.55.74l-.2.49,11.18-1.91S137.74,281.28,137.83,281Z" style="opacity: 0.3; transform-origin: 132.164px 281.494px;" class="animable"></path></g><path d="M127.22,284.77c.11-.36,1.15-.82,2.45-1.13l0-.12c.11-.39,0-.63-.83-.5l0-.31,7.74-1.27-.34.31c-1,.16-1.45.25-1.66.93l-.05.15c1.21-.11,2,0,1.92.4l-.25.79L127,285.57Z" style="fill: rgb(255, 193, 0); transform-origin: 131.79px 283.505px;" id="el0w29u3xi2av" class="animable"></path><g id="eld847jn3oez6"><path d="M127.22,284.77c.11-.36,1.15-.82,2.45-1.13l0-.12c.11-.39,0-.63-.83-.5l0-.31,7.74-1.27-.34.31c-1,.16-1.45.25-1.66.93l-.05.15c1.21-.11,2,0,1.92.4l-.25.79L127,285.57Z" style="opacity: 0.4; transform-origin: 131.79px 283.505px;" class="animable"></path></g><path d="M117.09,295.93c2.62.95,5.57.71,8.32.8.26,0,.58,0,.69.29a.58.58,0,0,1-.24.62,2.72,2.72,0,0,0-.54.47c-.21.31-.13.72-.19,1.09a2.81,2.81,0,0,1-.86,1.38,6.49,6.49,0,0,1-1.38,1.24,9.68,9.68,0,0,1-6.19.73,20.7,20.7,0,0,1-3.77-1.21c-1.16-.46-8.19-2.72-9-3-6.2-2.33-14.74-5.21-15.18-8.18s2.13-12.75,3.43-20.26c1.24-7.13,3.89-8,7.91-8.73A13.41,13.41,0,0,1,101,275l-2.61,11.59A135.22,135.22,0,0,0,111,293.8a5,5,0,0,0,2.48-.21,10.77,10.77,0,0,1,4.55-.35" style="fill: rgb(255, 168, 167); transform-origin: 107.408px 281.967px;" id="elloll6cuvab" class="animable"></path><path d="M100.24,261.08C96,261.56,94,262.6,93,266s-2.63,11.48-2.63,11.48c2.76,2.55,6.51,3,9.65,3.06l1.41-5.67C102.47,272.6,104.37,266.05,100.24,261.08Z" style="fill: rgb(69, 90, 100); transform-origin: 96.5763px 270.81px;" id="el7cwlt3856z8" class="animable"></path></g></g></g></g><defs>     <filter id="active" height="200%">         <feMorphology in="SourceAlpha" result="DILATED" operator="dilate" radius="2"></feMorphology>                <feFlood flood-color="#32DFEC" flood-opacity="1" result="PINK"></feFlood>        <feComposite in="PINK" in2="DILATED" operator="in" result="OUTLINE"></feComposite>        <feMerge>            <feMergeNode in="OUTLINE"></feMergeNode>            <feMergeNode in="SourceGraphic"></feMergeNode>        </feMerge>    </filter>    <filter id="hover" height="200%">        <feMorphology in="SourceAlpha" result="DILATED" operator="dilate" radius="2"></feMorphology>                <feFlood flood-color="#ff0000" flood-opacity="0.5" result="PINK"></feFlood>        <feComposite in="PINK" in2="DILATED" operator="in" result="OUTLINE"></feComposite>        <feMerge>            <feMergeNode in="OUTLINE"></feMergeNode>            <feMergeNode in="SourceGraphic"></feMergeNode>        </feMerge>            <feColorMatrix type="matrix" values="0   0   0   0   0                0   1   0   0   0                0   0   0   0   0                0   0   0   1   0 "></feColorMatrix>    </filter></defs></svg>